<svg xmlns="http://www.w3.org/2000/svg" viewBox="0 0 24 24" fill="currentColor"><g transform="translate(-1.5197 24.5895) scale(0.026201 -0.026201)"><path d="M480 252V524H560V252ZM558 655Q558 674 546.0 686.0Q534 698 516 698Q497 698 485.5 686.5Q474 675 474.0 656.5Q474 638 486.0 626.5Q498 615 516.0 615.0Q534 615 546.0 626.5Q558 638 558 655ZM58 481Q58 576 94.5 659.0Q131 742 193.0 804.0Q255 866 338.0 902.0Q421 938 516.0 938.0Q611 938 694.5 902.0Q778 866 840.0 804.0Q902 742 938.0 658.5Q974 575 974.0 480.5Q974 386 938.0 303.0Q902 220 840.0 158.0Q778 96 694.5 59.5Q611 23 516.0 23.0Q421 23 338.0 59.0Q255 95 193.0 157.5Q131 220 94.5 303.0Q58 386 58 481ZM517 103Q673 103 783.0 213.5Q893 324 893 481Q893 638 783.0 748.0Q673 858 516 858Q360 858 249.5 748.0Q139 638 139 480Q139 324 249.5 213.5Q360 103 517 103ZM516 480Z"/></g></svg>
