<?xml version="1.0" encoding="UTF-8" standalone="no"?>
<!-- Created with Inkscape (http://www.inkscape.org/) -->

<svg
   width="100cm"
   height="100cm"
   viewBox="0 0 1000 1000"
   version="1.1"
   id="svg5"
   xmlns="http://www.w3.org/2000/svg"
   xmlns:svg="http://www.w3.org/2000/svg">
  <defs
     id="defs2" />
  <g
     id="layer1">
    <rect
       style="opacity:1;fill:#00535c;fill-opacity:1;stroke-width:0.590665;stroke-linecap:round;stroke-linejoin:round;paint-order:stroke fill markers"
       id="rect1054"
       width="1000"
       height="1000"
       x="-1.4210855e-14"
       y="9.9475983e-14" />
    <g
       aria-label="OLEA"
       id="text236"
       style="font-weight:bold;font-size:211.051px;line-height:1.5;font-family:Break;-inkscape-font-specification:'Break, Bold';letter-spacing:0px;fill:#70e0d0;stroke-width:0.186122">
      <path
         d="m 321.71461,428.24265 q 14.77357,0 27.85873,5.69837 13.08517,5.69838 22.79351,15.40673 9.70835,9.70834 15.40673,22.7935 5.69837,13.08517 5.69837,27.85874 0,14.98462 -5.69837,28.06978 -5.69838,12.87411 -15.40673,22.79351 -9.70834,9.70834 -22.79351,15.40672 -13.08516,5.48732 -27.85873,5.48732 -14.98462,0 -28.06978,-5.48732 -12.87411,-5.69838 -22.79351,-15.40672 -9.70834,-9.9194 -15.40672,-22.79351 -5.48732,-13.08516 -5.48732,-28.06978 0,-9.28625 2.32156,-17.93934 2.32156,-8.86414 6.54258,-16.88408 1.2663,-2.32156 3.58786,-2.95471 2.53262,-0.63316 4.85418,0.63315 2.32156,1.26631 2.95471,3.79892 0.63315,2.32156 -0.63315,4.64312 -7.38679,13.08516 -7.38679,28.70294 0,12.24095 4.64312,23.21561 4.85418,10.7636 12.87412,18.78353 8.01993,8.01994 18.78353,12.87411 10.97466,4.64313 23.21561,4.64313 12.24096,0 23.00456,-4.64313 10.97465,-4.85417 18.99459,-12.87411 8.01994,-8.01993 12.66306,-18.78353 4.85417,-10.97466 4.85417,-23.21561 0,-12.24096 -4.85417,-23.00456 -4.64312,-10.97465 -12.66306,-18.99459 -8.01994,-8.01994 -18.99459,-12.66306 -10.7636,-4.85417 -23.00456,-4.85417 -15.40672,0 -28.91398,7.38678 -2.32156,1.26631 -4.64312,0.63315 -2.32157,-0.63315 -3.58787,-2.95471 -1.26631,-2.32156 -0.63315,-4.64312 0.63315,-2.53261 2.95471,-3.58787 16.25093,-9.07519 34.82341,-9.07519 z"
         id="path419" />
      <path
         d="m 418.58712,521.10509 q -2.53261,0 -4.43207,-1.68841 -1.68841,-1.89946 -1.68841,-4.43207 v -80.62148 q 0,-2.53262 1.68841,-4.22102 1.89946,-1.89946 4.43207,-1.89946 2.53262,0 4.22102,1.89946 1.89946,1.6884 1.89946,4.22102 v 80.62148 q 0,2.53261 -1.89946,4.43207 -1.6884,1.68841 -4.22102,1.68841 z m 74.71206,38.41128 q 2.53261,0 4.22102,1.89946 1.89945,1.6884 1.89945,4.22102 0,2.53261 -1.89945,4.43207 -1.68841,1.6884 -4.22102,1.6884 h -52.34065 q -5.90943,0 -11.1857,-2.11051 -5.06523,-2.32156 -9.0752,-6.12047 -3.79891,-4.00997 -6.12048,-9.0752 -2.11051,-5.27627 -2.11051,-11.1857 0,-2.53261 1.68841,-4.22102 1.89946,-1.89946 4.43207,-1.89946 2.53262,0 4.22102,1.89946 1.89946,1.68841 1.89946,4.22102 0,6.75363 4.64312,11.6078 4.85418,4.64313 11.60781,4.64313 z"
         id="path421" />
      <path
         d="m 593.12611,559.51637 q 2.74366,0 4.43207,1.89946 1.89946,1.6884 1.89946,4.22102 0,2.53261 -1.89946,4.43207 -1.68841,1.6884 -4.43207,1.6884 h -45.37597 -0.4221 q -5.48732,-0.21105 -10.3415,-2.32156 -4.64312,-2.11051 -8.23098,-5.48732 -3.58787,-3.58787 -5.90943,-8.23099 -2.11051,-4.64312 -2.32156,-10.13045 v -0.63315 -82.30989 -1.89946 q 0,-2.53261 1.6884,-4.22102 1.89946,-1.89946 4.43208,-1.89946 2.53261,0 4.22102,1.89946 1.89945,1.68841 1.89945,4.22102 v 1.89946 31.23555 h 27.22558 q 2.53261,0 4.22102,1.89946 1.89946,1.6884 1.89946,4.22102 0,2.53261 -1.89946,4.43207 -1.68841,1.6884 -4.22102,1.6884 h -27.22558 v 38.20023 q 0,6.33153 4.43208,10.76361 4.43207,4.43207 10.7636,4.43207 z M 526.64505,440.48361 q -2.53262,0 -4.43208,-1.68841 -1.6884,-1.89946 -1.6884,-4.43207 0,-2.53262 1.6884,-4.22102 1.89946,-1.89946 4.43208,-1.89946 h 59.09427 q 2.53262,0 4.22102,1.89946 1.89946,1.6884 1.89946,4.22102 0,2.53261 -1.89946,4.43207 -1.6884,1.68841 -4.22102,1.68841 z"
         id="path423" />
      <path
         d="m 749.51509,563.10423 q 1.05525,2.32156 0,4.85418 -0.84421,2.32156 -3.16577,3.37681 -1.68841,0.4221 -2.53261,0.4221 -4.00997,0 -5.69838,-3.58786 l -52.76275,-118.82171 -26.59242,59.30533 h 29.96924 q 2.74366,0 4.43207,1.89946 1.89946,1.6884 1.89946,4.22102 0,2.53261 -1.89946,4.43207 -1.68841,1.89946 -4.43207,1.89946 h -35.45657 l -20.89405,47.06437 q -1.68841,3.58786 -5.69837,3.58786 -0.84421,0 -2.53262,-0.4221 -2.32156,-1.05525 -3.37681,-3.37681 -0.84421,-2.53262 0.21105,-4.85418 l 22.58246,-50.65224 36.08972,-80.62148 q 1.2663,-3.16576 5.27627,-3.58786 h 0.63315 q 3.79892,0.4221 5.48733,3.58786 l 58.46113,131.27372 z"
         id="path425" />
    </g>
  </g>
</svg>
