<?xml version="1.0" encoding="UTF-8" standalone="no"?>
<!-- Created with Inkscape (http://www.inkscape.org/) -->

<svg
   width="100cm"
   height="100cm"
   viewBox="0 0 1000 1000"
   version="1.1"
   id="svg5"
   xmlns="http://www.w3.org/2000/svg"
   xmlns:svg="http://www.w3.org/2000/svg">
  <defs
     id="defs2" />
  <g
     id="layer1">
    <rect
       style="opacity:1;fill:#00535c;fill-opacity:1;stroke-width:0.590665;stroke-linecap:round;stroke-linejoin:round;paint-order:stroke fill markers"
       id="rect1054"
       width="1000"
       height="1000"
       x="-1.4210855e-14"
       y="9.9475983e-14" />
    <g
       aria-label="OLEA"
       id="text236"
       style="font-weight:bold;font-size:369.395px;line-height:1.5;font-family:Break;-inkscape-font-specification:'Break, Bold';letter-spacing:0px;fill:#70e0d0;stroke-width:0.325763">
      <path
         d="m 187.9535,374.40571 q 25.85765,0 48.76013,9.97366 22.90249,9.97367 39.89466,26.96584 16.99217,16.99217 26.96584,39.89465 9.97366,22.90249 9.97366,48.76014 0,26.22705 -9.97366,49.12954 -9.97367,22.53309 -26.96584,39.89466 -16.99217,16.99216 -39.89466,26.96583 -22.90248,9.60427 -48.76013,9.60427 -26.22705,0 -49.12954,-9.60427 Q 116.29087,606.01636 98.929303,589.0242 81.937134,571.66263 71.963469,549.12954 62.3592,526.22705 62.3592,500 q 0,-16.25338 4.063344,-31.39857 4.063345,-15.51459 11.451245,-29.5516 2.21637,-4.06335 6.279715,-5.17153 4.43274,-1.10818 8.496085,1.10818 4.063345,2.21637 5.171529,6.64911 1.108185,4.06335 -1.108184,8.12669 Q 83.784109,472.66477 83.784109,500 q 0,21.42491 8.12669,40.63345 8.496081,18.83915 22.533091,32.87616 14.03701,14.03701 32.87616,22.53309 19.20854,8.12669 40.63345,8.12669 21.42491,0 40.26405,-8.12669 19.20854,-8.49608 33.24555,-22.53309 14.03701,-14.03701 22.1637,-32.87616 8.49608,-19.20854 8.49608,-40.63345 0,-21.42491 -8.49608,-40.26405 -8.12669,-19.20854 -22.1637,-33.24555 -14.03701,-14.03701 -33.24555,-22.1637 -18.83914,-8.49608 -40.26405,-8.49608 -26.96584,0 -50.60712,12.92882 -4.06334,2.21637 -8.12669,1.10819 -4.06334,-1.10819 -6.27971,-5.17153 -2.21637,-4.06335 -1.10819,-8.12669 1.10819,-4.43274 5.17153,-6.27972 28.44342,-15.88398 60.95018,-15.88398 z"
         id="path631" />
      <path
         d="m 357.50595,536.9395 q -4.43274,0 -7.75729,-2.95516 -2.95516,-3.32455 -2.95516,-7.75729 V 385.11816 q 0,-4.43274 2.95516,-7.3879 3.32455,-3.32455 7.75729,-3.32455 4.43274,0 7.3879,3.32455 3.32455,2.95516 3.32455,7.3879 v 141.10889 q 0,4.43274 -3.32455,7.75729 -2.95516,2.95516 -7.3879,2.95516 z m 130.76583,67.22989 q 4.43274,0 7.3879,3.32455 3.32455,2.95516 3.32455,7.3879 0,4.43274 -3.32455,7.7573 -2.95516,2.95516 -7.3879,2.95516 h -91.60996 q -10.34306,0 -19.57794,-3.69395 -8.86548,-4.06335 -15.88398,-10.71246 -6.64911,-7.0185 -10.71245,-15.88398 -3.69395,-9.23487 -3.69395,-19.57793 0,-4.43274 2.95516,-7.3879 3.32455,-3.32456 7.75729,-3.32456 4.43274,0 7.3879,3.32456 3.32455,2.95516 3.32455,7.3879 0,11.82064 8.12669,20.31672 8.49609,8.12669 20.31673,8.12669 z"
         id="path633" />
      <path
         d="m 662.99528,604.16939 q 4.80214,0 7.7573,3.32455 3.32455,2.95516 3.32455,7.3879 0,4.43274 -3.32455,7.7573 -2.95516,2.95516 -7.7573,2.95516 h -79.41992 -0.73879 q -9.60427,-0.3694 -18.10035,-4.06335 -8.12669,-3.69395 -14.40641,-9.60427 -6.27971,-6.27971 -10.34306,-14.4064 -3.69395,-8.12669 -4.06334,-17.73096 v -1.10818 -144.06405 -3.32455 q 0,-4.43274 2.95516,-7.3879 3.32455,-3.32456 7.75729,-3.32456 4.43274,0 7.3879,3.32456 3.32456,2.95516 3.32456,7.3879 v 3.32455 54.67046 h 47.65195 q 4.43274,0 7.3879,3.32455 3.32456,2.95516 3.32456,7.3879 0,4.43274 -3.32456,7.7573 -2.95516,2.95516 -7.3879,2.95516 h -47.65195 v 66.86049 q 0,11.08185 7.75729,18.83915 7.7573,7.75729 18.83915,7.75729 z M 546.63586,395.83062 q -4.43274,0 -7.75729,-2.95516 -2.95516,-3.32456 -2.95516,-7.7573 0,-4.43274 2.95516,-7.3879 3.32455,-3.32455 7.75729,-3.32455 h 103.4306 q 4.43274,0 7.3879,3.32455 3.32455,2.95516 3.32455,7.3879 0,4.43274 -3.32455,7.7573 -2.95516,2.95516 -7.3879,2.95516 z"
         id="path635" />
      <path
         d="m 936.71731,610.4491 q 1.84698,4.06335 0,8.49609 -1.47758,4.06334 -5.54092,5.91032 -2.95516,0.73879 -4.43274,0.73879 -7.01851,0 -9.97367,-6.27972 L 824.42124,411.34521 777.87747,515.1452 h 52.45409 q 4.80213,0 7.75729,3.32455 3.32456,2.95516 3.32456,7.3879 0,4.43274 -3.32456,7.7573 -2.95516,3.32455 -7.75729,3.32455 H 768.2732 l -36.57011,82.37508 q -2.95516,6.27972 -9.97366,6.27972 -1.47758,0 -4.43274,-0.73879 -4.06334,-1.84698 -5.91032,-5.91032 -1.47758,-4.43274 0.3694,-8.49609 l 39.52526,-88.65479 63.16654,-141.10889 q 2.21637,-5.54092 9.23488,-6.27971 h 1.10818 q 6.64911,0.73879 9.60427,6.27971 L 936.71731,610.4491 Z"
         id="path637" />
    </g>
  </g>
</svg>
