<?xml version="1.0" encoding="UTF-8" standalone="no"?>
<!-- Created with Inkscape (http://www.inkscape.org/) -->

<svg
   width="1920"
   height="618"
   viewBox="0 0 507.99999 163.5125"
   version="1.1"
   id="svg8932"
   xmlns="http://www.w3.org/2000/svg"
   xmlns:svg="http://www.w3.org/2000/svg">
  <defs
     id="defs8929" />
  <g
     id="layer1">
    <rect
       style="fill:#00535c;fill-opacity:1;stroke-width:0.170235;stroke-linecap:round;stroke-linejoin:round;paint-order:stroke fill markers"
       id="rect1054"
       width="508"
       height="163.5125"
       x="-5.2624571e-14"
       y="1.5258789e-06" />
    <g
       aria-label="OPEN SOURCE
Apache License 2.0"
       transform="rotate(-90)"
       id="text6-6"
       style="font-weight:bold;font-size:15.2363px;font-family:'Break Fill';-inkscape-font-specification:'Break Fill, Bold';word-spacing:7.27559px;dominant-baseline:middle;text-anchor:middle;fill:#fbfceb;stroke-width:0.0761812"
       class="custom">
      <path
         d="m -129.16248,469.80989 q -1.08177,0 -2.02642,-0.39615 -0.92942,-0.41138 -1.64552,-1.11225 -0.70087,-0.7161 -1.11225,-1.64552 -0.39615,-0.94465 -0.39615,-2.02642 0,-1.06655 0.39615,-2.0112 0.41138,-0.94465 1.11225,-1.64552 0.7161,-0.70087 1.64552,-1.11225 0.94465,-0.41138 2.02642,-0.41138 1.06655,0 2.0112,0.41138 0.94465,0.41138 1.64552,1.11225 0.70087,0.70087 1.11225,1.64552 0.41138,0.94465 0.41138,2.0112 0,1.08177 -0.41138,2.02642 -0.41138,0.92942 -1.11225,1.64552 -0.70087,0.70087 -1.64552,1.11225 -0.94465,0.39615 -2.0112,0.39615 z m 0,-9.47698 q -0.8837,0 -1.67599,0.35043 -0.77705,0.3352 -1.35603,0.91418 -0.57898,0.57898 -0.92941,1.37127 -0.3352,0.77705 -0.3352,1.66076 0,0.8837 0.3352,1.67599 0.35043,0.77705 0.92941,1.35603 0.57898,0.57898 1.35603,0.92941 0.79229,0.3352 1.67599,0.3352 0.88371,0 1.66076,-0.3352 0.79229,-0.35043 1.37127,-0.92941 0.57898,-0.57898 0.91418,-1.35603 0.35043,-0.79229 0.35043,-1.67599 0,-0.88371 -0.35043,-1.66076 -0.3352,-0.79229 -0.91418,-1.37127 -0.57898,-0.57898 -1.37127,-0.91418 -0.77705,-0.35043 -1.66076,-0.35043 z"
         id="path524" />
      <path
         d="m -118.28377,459.4492 q 0.838,0 1.56934,0.31997 0.73135,0.31996 1.27985,0.86847 0.54851,0.5485 0.85324,1.27984 0.31996,0.73135 0.31996,1.55411 0,0.83799 -0.31996,1.56934 -0.30473,0.73134 -0.85324,1.27985 -0.5485,0.5485 -1.27985,0.86846 -0.73134,0.31997 -1.56934,0.31997 -0.95988,0 -1.76741,-0.41138 -0.80752,-0.41138 -1.37126,-1.09702 v 3.36723 q 0,0.18283 -0.13713,0.31996 -0.12189,0.12189 -0.30473,0.12189 -0.18283,0 -0.31996,-0.12189 -0.12189,-0.13713 -0.12189,-0.31996 v -9.47698 q 0,-0.18284 0.12189,-0.30473 0.13713,-0.13713 0.31996,-0.13713 z m 0,7.16106 q 0.63993,0 1.20367,-0.24378 0.57898,-0.24378 1.0056,-0.67039 0.42661,-0.42662 0.6704,-0.99036 0.25901,-0.57898 0.25901,-1.23414 0,-0.63993 -0.25901,-1.20367 -0.24379,-0.57898 -0.6704,-1.0056 -0.42662,-0.42661 -1.0056,-0.67039 -0.56374,-0.24378 -1.20367,-0.24378 h -3.13867 v 3.23009 q 0.0152,0.62469 0.27425,1.18843 0.25902,0.54851 0.68563,0.95989 0.42662,0.41138 0.97513,0.65516 0.56374,0.22854 1.20366,0.22854 z"
         id="path526" />
      <path
         d="m -107.48123,468.92618 q 0.19807,0 0.31996,0.13713 0.13713,0.12189 0.13713,0.30473 0,0.18283 -0.13713,0.31996 -0.12189,0.12189 -0.31996,0.12189 h -3.26057 q -0.41138,0 -0.77705,-0.15237 -0.35044,-0.15236 -0.62469,-0.42661 -0.27425,-0.27425 -0.42662,-0.62469 -0.15236,-0.36567 -0.15236,-0.77705 v -7.93811 q 0,-0.18284 0.12189,-0.30473 0.13713,-0.13713 0.31996,-0.13713 h 4.26617 q 0.18283,0 0.30472,0.13713 0.13713,0.12189 0.13713,0.30473 0,0.18283 -0.13713,0.31996 -0.12189,0.12189 -0.30472,0.12189 h -3.82431 v 3.85478 h 1.96548 q 0.18283,0 0.30472,0.13713 0.13713,0.12189 0.13713,0.30473 0,0.18283 -0.13713,0.31996 -0.12189,0.12189 -0.30472,0.12189 h -1.96548 v 2.75777 q 0,0.45709 0.31996,0.77705 0.31996,0.31996 0.77705,0.31996 h 3.26057 z"
         id="path528" />
      <path
         d="m -98.187074,469.80989 q -0.228545,0 -0.365672,-0.18284 l -6.064044,-8.36473 v 8.10572 q 0,0.18283 -0.13713,0.31996 -0.12189,0.12189 -0.30473,0.12189 -0.18283,0 -0.31996,-0.12189 -0.12189,-0.13713 -0.12189,-0.31996 v -9.47698 q 0,-0.13713 0.0762,-0.25902 0.0914,-0.12189 0.22855,-0.1676 0.30472,-0.0762 0.5028,0.1676 l 6.064043,8.36473 v -8.10571 q 0,-0.18284 0.12189,-0.30473 0.137127,-0.13713 0.319963,-0.13713 0.182835,0 0.304726,0.13713 0.137126,0.12189 0.137126,0.30473 v 9.47698 q 0,0.31996 -0.304726,0.42661 -0.04571,0.0152 -0.137126,0.0152 z"
         id="path530" />
      <path
         d="m -79.804217,469.80989 q -0.685634,0 -1.295086,-0.25902 -0.609452,-0.27425 -1.066541,-0.73134 -0.457089,-0.45709 -0.731342,-1.06654 -0.259017,-0.60945 -0.259017,-1.29509 0,-1.00559 0.563743,-1.85883 0.106654,-0.15236 0.274253,-0.18283 0.182836,-0.0457 0.335199,0.0609 0.152363,0.10666 0.182836,0.28949 0.04571,0.1676 -0.06095,0.31996 -0.426616,0.63993 -0.426616,1.37127 0,0.51804 0.198072,0.97513 0.198072,0.44185 0.53327,0.77705 0.335199,0.33519 0.777052,0.53327 0.457089,0.19807 0.975123,0.19807 0.502798,0 0.944651,-0.19807 0.457089,-0.19808 0.792287,-0.53327 0.335199,-0.3352 0.533271,-0.77705 0.198072,-0.45709 0.198072,-0.97513 0,-0.5028 -0.198072,-0.94465 -0.198072,-0.45709 -0.533271,-0.79229 -0.335198,-0.3352 -0.792287,-0.53327 -0.441853,-0.19807 -0.944651,-0.19807 h -0.01524 q -0.457089,-0.0152 -0.868469,-0.19807 -0.411381,-0.18284 -0.716107,-0.48756 -0.289489,-0.30473 -0.472325,-0.71611 -0.167599,-0.41138 -0.167599,-0.86847 0,-0.47232 0.167599,-0.8837 0.182836,-0.41138 0.487562,-0.71611 0.304726,-0.30473 0.716106,-0.48756 0.41138,-0.18284 0.883705,-0.18284 0.472326,0 0.883706,0.18284 0.41138,0.18283 0.716106,0.48756 0.304726,0.30473 0.487561,0.71611 0.182836,0.41138 0.182836,0.8837 0,0.18284 -0.137127,0.31996 -0.12189,0.1219 -0.289489,0.1219 -0.182836,0 -0.319963,-0.1219 -0.12189,-0.13712 -0.12189,-0.31996 0,-0.28949 -0.106654,-0.5485 -0.106654,-0.25902 -0.304726,-0.44186 -0.182836,-0.19807 -0.441853,-0.30472 -0.259017,-0.10666 -0.548507,-0.10666 -0.289489,0 -0.548507,0.10666 -0.24378,0.10665 -0.441852,0.30472 -0.182836,0.18284 -0.28949,0.44186 -0.106654,0.25901 -0.106654,0.5485 0,0.57898 0.396144,0.99036 0.41138,0.39615 0.990359,0.39615 h 0.01524 q 0.685633,0.0152 1.279849,0.28949 0.609452,0.25901 1.066541,0.7161 0.457089,0.45709 0.716106,1.06654 0.259017,0.59422 0.259017,1.27985 0,0.68564 -0.274253,1.29509 -0.259017,0.60945 -0.716106,1.06654 -0.457089,0.45709 -1.066541,0.73134 -0.609453,0.25902 -1.295086,0.25902 z"
         id="path532" />
      <path
         d="m -69.44352,469.80989 q -1.081777,0 -2.026428,-0.39615 -0.929414,-0.41138 -1.64552,-1.11225 -0.70087,-0.7161 -1.11225,-1.64552 -0.396144,-0.94465 -0.396144,-2.02642 0,-1.06655 0.396144,-2.0112 0.41138,-0.94465 1.11225,-1.64552 0.716106,-0.70087 1.64552,-1.11225 0.944651,-0.41138 2.026428,-0.41138 1.066541,0 2.011192,0.41138 0.944651,0.41138 1.645521,1.11225 0.700869,0.70087 1.112249,1.64552 0.411381,0.94465 0.411381,2.0112 0,1.08177 -0.411381,2.02642 -0.41138,0.92942 -1.112249,1.64552 -0.70087,0.70087 -1.645521,1.11225 -0.944651,0.39615 -2.011192,0.39615 z m 0,-9.47698 q -0.883705,0 -1.675993,0.35043 -0.777051,0.3352 -1.35603,0.91418 -0.57898,0.57898 -0.929415,1.37127 -0.335198,0.77705 -0.335198,1.66076 0,0.8837 0.335198,1.67599 0.350435,0.77705 0.929415,1.35603 0.578979,0.57898 1.35603,0.92941 0.792288,0.3352 1.675993,0.3352 0.883706,0 1.660757,-0.3352 0.792288,-0.35043 1.371267,-0.92941 0.57898,-0.57898 0.914178,-1.35603 0.350435,-0.79229 0.350435,-1.67599 0,-0.88371 -0.350435,-1.66076 -0.335198,-0.79229 -0.914178,-1.37127 -0.578979,-0.57898 -1.371267,-0.91418 -0.777051,-0.35043 -1.660757,-0.35043 z"
         id="path534" />
      <path
         d="m -55.867987,459.4492 q 0.182836,0 0.304726,0.13713 0.137127,0.12189 0.137127,0.30473 v 7.64862 q 0,0.47232 -0.182836,0.8837 -0.182835,0.41138 -0.487561,0.73135 -0.304726,0.30472 -0.716106,0.48756 -0.41138,0.1676 -0.883706,0.1676 h -2.620643 q -0.472326,0 -0.883706,-0.1676 -0.41138,-0.18284 -0.731342,-0.48756 -0.304726,-0.31997 -0.487562,-0.73135 -0.167599,-0.41138 -0.167599,-0.8837 v -7.64862 q 0,-0.18284 0.12189,-0.30473 0.137127,-0.13713 0.319962,-0.13713 0.182836,0 0.304726,0.13713 0.137127,0.12189 0.137127,0.30473 v 7.64862 q 0,0.57898 0.396144,0.99036 0.41138,0.39614 0.99036,0.39614 h 2.620643 q 0.57898,0 0.975123,-0.39614 0.411381,-0.41138 0.411381,-0.99036 v -7.64862 q 0,-0.18284 0.12189,-0.30473 0.137127,-0.13713 0.319962,-0.13713 z"
         id="path536" />
      <path
         d="m -45.857736,463.47159 q 0,0.76181 -0.274254,1.44745 -0.274253,0.68563 -0.746578,1.2189 -0.472326,0.53327 -1.127487,0.8837 -0.639924,0.35044 -1.386503,0.44186 l 2.011192,1.5541 q 0.152363,0.12189 0.167599,0.30473 0.03047,0.1676 -0.07618,0.31996 -0.137127,0.1676 -0.365672,0.1676 -0.152363,0 -0.259017,-0.0914 l -5.10416,-3.9462 v 3.59577 q 0,0.18283 -0.137127,0.31996 -0.121891,0.12189 -0.304726,0.12189 -0.182836,0 -0.319962,-0.12189 -0.121891,-0.13713 -0.121891,-0.31996 v -9.47698 q 0,-0.18284 0.121891,-0.30473 0.137126,-0.13713 0.319962,-0.13713 h 3.58053 q 0.822761,0 1.554103,0.31997 0.731343,0.30472 1.279849,0.85323 0.548507,0.54851 0.868469,1.27985 0.319963,0.73134 0.319963,1.56934 z m -4.022384,3.13867 q 0.639925,0 1.203668,-0.24378 0.57898,-0.25901 1.005596,-0.68563 0.426616,-0.42662 0.670397,-0.99036 0.243781,-0.57898 0.243781,-1.2189 0,-0.63993 -0.243781,-1.20367 -0.243781,-0.57898 -0.670397,-1.0056 -0.426616,-0.42661 -1.005596,-0.67039 -0.563743,-0.25902 -1.203668,-0.25902 h -3.138677 v 4.32711 l 2.087373,1.59981 q 0.213308,0.1676 0.487561,0.25902 0.274254,0.0914 0.563743,0.0914 z"
         id="path538" />
      <path
         d="m -35.923667,460.59193 q 0.152363,0.12189 0.167599,0.30472 0.03047,0.1676 -0.09142,0.31996 -0.12189,0.13713 -0.304726,0.1676 -0.167599,0.0152 -0.319962,-0.10665 -1.157959,-0.92941 -2.681589,-0.92941 -0.883706,0 -1.675993,0.33519 -0.777052,0.3352 -1.356031,0.92942 -0.578979,0.57898 -0.929414,1.35603 -0.335199,0.77705 -0.335199,1.66076 0,0.8837 0.335199,1.67599 0.350435,0.77705 0.929414,1.35603 0.578979,0.57898 1.356031,0.92941 0.792287,0.3352 1.675993,0.3352 0.182835,0 0.304726,0.13713 0.137127,0.12189 0.137127,0.30473 0,0.18283 -0.137127,0.31996 -0.121891,0.12189 -0.304726,0.12189 -1.081778,0 -2.026428,-0.39615 -0.929414,-0.41138 -1.645521,-1.11225 -0.700869,-0.7161 -1.11225,-1.64552 -0.396143,-0.94465 -0.396143,-2.02642 0,-1.06655 0.396143,-2.0112 0.411381,-0.94465 1.11225,-1.64552 0.716107,-0.70087 1.645521,-1.11225 0.94465,-0.41138 2.026428,-0.41138 0.883705,0 1.706465,0.30473 0.837997,0.28949 1.523631,0.838 z"
         id="path540" />
      <path
         d="m -28.991149,468.92618 q 0.198072,0 0.319963,0.13713 0.137126,0.12189 0.137126,0.30473 0,0.18283 -0.137126,0.31996 -0.121891,0.12189 -0.319963,0.12189 h -3.260568 q -0.41138,0 -0.777051,-0.15237 -0.350435,-0.15236 -0.624689,-0.42661 -0.274253,-0.27425 -0.426616,-0.62469 -0.152363,-0.36567 -0.152363,-0.77705 v -7.93811 q 0,-0.18284 0.12189,-0.30473 0.137127,-0.13713 0.319963,-0.13713 h 4.266164 q 0.182835,0 0.304726,0.13713 0.137127,0.12189 0.137127,0.30473 0,0.18283 -0.137127,0.31996 -0.121891,0.12189 -0.304726,0.12189 h -3.824312 v 3.85478 h 1.965483 q 0.182836,0 0.304726,0.13713 0.137127,0.12189 0.137127,0.30473 0,0.18283 -0.137127,0.31996 -0.12189,0.12189 -0.304726,0.12189 h -1.965483 v 2.75777 q 0,0.45709 0.319963,0.77705 0.319962,0.31996 0.777051,0.31996 h 3.260568 z"
         id="path542" />
      <path
         d="m -142.06394,488.23058 q 0.0762,0.16759 0,0.35043 -0.0609,0.1676 -0.22854,0.24378 -0.0914,0.0305 -0.1676,0.0305 -0.28949,0 -0.41138,-0.25901 l -1.52363,-3.3977 h -4.60136 l -1.5084,3.3977 q -0.0762,0.1676 -0.25902,0.24378 -0.1676,0.0609 -0.33519,-0.0152 -0.1676,-0.0762 -0.24379,-0.24378 -0.0609,-0.18284 0.0152,-0.35043 l 4.23569,-9.47698 q 0.10666,-0.25902 0.39615,-0.25902 0.27425,0 0.41138,0.25902 z m -2.7273,-3.93097 -1.90453,-4.26616 -1.90454,4.26616 z"
         id="path544" />
      <path
         d="m -137.67587,482.09035 q 0.70087,0 1.31032,0.27425 0.62469,0.25902 1.08177,0.71611 0.45709,0.45708 0.71611,1.08177 0.27425,0.60945 0.27425,1.31032 0,0.70087 -0.27425,1.32556 -0.25902,0.60945 -0.71611,1.06654 -0.45708,0.45709 -1.08177,0.73135 -0.60945,0.25901 -1.31032,0.25901 -0.73135,0 -1.37127,-0.28949 -0.63993,-0.28949 -1.11225,-0.79228 v 4.6166 q 0,0.18283 -0.13713,0.30472 -0.12189,0.13713 -0.31996,0.13713 -0.18284,0 -0.31996,-0.13713 -0.12189,-0.12189 -0.12189,-0.30472 v -9.84265 q 0,-0.19808 0.12189,-0.31997 0.13712,-0.13712 0.31996,-0.13712 0.19807,0 0.31996,0.13712 0.13713,0.12189 0.13713,0.31997 v 0.63992 q 0.47232,-0.5028 1.11225,-0.79229 0.63992,-0.30472 1.37127,-0.30472 z m 0,5.86597 q 0.51803,0 0.95988,-0.19807 0.45709,-0.19807 0.79229,-0.53327 0.3352,-0.3352 0.53327,-0.77705 0.19807,-0.45709 0.19807,-0.97513 0,-0.51803 -0.19807,-0.95988 -0.19807,-0.45709 -0.53327,-0.79229 -0.3352,-0.3352 -0.79229,-0.53327 -0.44185,-0.19807 -0.95988,-0.19807 -0.51804,0 -0.97513,0.19807 -0.44185,0.19807 -0.77705,0.53327 -0.3352,0.3352 -0.53327,0.79229 -0.19807,0.44185 -0.19807,0.95988 0,0.51804 0.19807,0.97513 0.19807,0.44185 0.53327,0.77705 0.3352,0.3352 0.77705,0.53327 0.45709,0.19807 0.97513,0.19807 z"
         id="path546" />
      <path
         d="m -126.91904,482.10558 q 0.19807,0 0.31996,0.13713 0.13713,0.12189 0.13713,0.30473 v 5.86597 q 0,0.18284 -0.13713,0.31996 -0.12189,0.12189 -0.31996,0.12189 -0.18283,0 -0.31996,-0.12189 -0.12189,-0.13712 -0.12189,-0.31996 v -0.65516 q -0.47233,0.5028 -1.11225,0.80752 -0.63993,0.28949 -1.37127,0.28949 -0.70087,0 -1.32556,-0.25901 -0.60945,-0.27426 -1.06654,-0.73135 -0.45709,-0.45709 -0.7161,-1.06654 -0.27426,-0.62469 -0.27426,-1.32556 0,-0.70087 0.27426,-1.31032 0.25901,-0.62469 0.7161,-1.08177 0.45709,-0.45709 1.06654,-0.71611 0.62469,-0.27425 1.32556,-0.27425 0.73134,0 1.37127,0.30472 0.63992,0.28949 1.11225,0.79229 v -0.63992 q 0,-0.18284 0.12189,-0.30473 0.13713,-0.13713 0.31996,-0.13713 z m -2.92537,5.85074 q 0.51804,0 0.95989,-0.19807 0.45709,-0.19807 0.79229,-0.53327 0.33519,-0.3352 0.53327,-0.77705 0.19807,-0.45709 0.19807,-0.97513 0,-0.51803 -0.19807,-0.95988 -0.19808,-0.45709 -0.53327,-0.79229 -0.3352,-0.3352 -0.79229,-0.53327 -0.44185,-0.19807 -0.95989,-0.19807 -0.51803,0 -0.97512,0.19807 -0.44185,0.19807 -0.77705,0.53327 -0.3352,0.3352 -0.53327,0.79229 -0.19808,0.44185 -0.19808,0.95988 0,0.51804 0.19808,0.97513 0.19807,0.44185 0.53327,0.77705 0.3352,0.3352 0.77705,0.53327 0.45709,0.19807 0.97512,0.19807 z"
         id="path548" />
      <path
         d="m -121.55586,488.85526 q -0.70087,0 -1.32556,-0.25901 -0.60945,-0.27426 -1.06654,-0.73135 -0.45709,-0.45709 -0.73134,-1.06654 -0.25902,-0.62469 -0.25902,-1.32556 0,-0.70087 0.25902,-1.31032 0.27425,-0.62469 0.73134,-1.08177 0.45709,-0.45709 1.06654,-0.71611 0.62469,-0.27425 1.32556,-0.27425 0.73134,0 1.37127,0.28949 0.65516,0.28949 1.14272,0.82276 0.12189,0.13712 0.10665,0.33519 0,0.18284 -0.15236,0.30473 -0.13713,0.12189 -0.31996,0.12189 -0.18284,-0.0152 -0.30473,-0.15236 -0.35043,-0.39615 -0.838,-0.60945 -0.47232,-0.21331 -1.00559,-0.21331 -0.51804,0 -0.97512,0.19807 -0.44186,0.19807 -0.77706,0.53327 -0.33519,0.3352 -0.53327,0.79229 -0.19807,0.44185 -0.19807,0.95988 0,0.51804 0.19807,0.97513 0.19808,0.44185 0.53327,0.77705 0.3352,0.3352 0.77706,0.53327 0.45708,0.19807 0.97512,0.19807 0.18283,0 0.30472,0.13713 0.13713,0.12189 0.13713,0.31996 0,0.18284 -0.13713,0.31996 -0.12189,0.12189 -0.30472,0.12189 z"
         id="path550" />
      <path
         d="m -114.71475,482.09035 q 0.57898,0 1.09701,0.24378 0.51804,0.22854 0.89895,0.62469 0.39614,0.39614 0.60945,0.92941 0.22854,0.51803 0.22854,1.09701 v 3.42817 q 0,0.18284 -0.13712,0.31996 -0.1219,0.12189 -0.31997,0.12189 -0.18283,0 -0.31996,-0.12189 -0.12189,-0.13712 -0.12189,-0.31996 v -3.42817 q 0,-0.39614 -0.15236,-0.76181 -0.15237,-0.36567 -0.42662,-0.63993 -0.25902,-0.27425 -0.60945,-0.44185 -0.35044,-0.1676 -0.74658,-0.1676 -0.39614,0 -0.76182,0.1676 -0.35043,0.1676 -0.62468,0.44185 -0.25902,0.27426 -0.41138,0.63993 -0.15237,0.36567 -0.15237,0.76181 v 3.42817 q 0,0.18284 -0.13712,0.31996 -0.12189,0.12189 -0.30473,0.12189 -0.18283,0 -0.31996,-0.13712 -0.12189,-0.13713 -0.12189,-0.36567 v -9.75124 q 0,-0.13712 0.12189,-0.25901 0.13713,-0.12189 0.31996,-0.12189 0.18284,0 0.30473,0.13712 0.13712,0.12189 0.13712,0.30473 v 4.20522 q 0.39615,-0.36567 0.88371,-0.56375 0.48756,-0.2133 1.06654,-0.2133 z"
         id="path552" />
      <path
         d="m -106.82234,488.85526 q -0.70087,0 -1.32556,-0.25901 -0.60945,-0.27426 -1.06654,-0.73135 -0.45709,-0.45709 -0.73135,-1.06654 -0.25901,-0.62469 -0.25901,-1.32556 0,-0.70087 0.25901,-1.31032 0.27426,-0.62469 0.73135,-1.08177 0.45709,-0.45709 1.06654,-0.71611 0.62469,-0.27425 1.32556,-0.27425 0.62468,0 1.18843,0.2133 0.56374,0.21331 1.00559,0.59422 0.44186,0.36567 0.74658,0.89894 0.30473,0.51804 0.39615,1.12749 0.0305,0.22854 -0.10666,0.36567 -0.12189,0.1676 -0.3352,0.1676 h -5.37841 v 0.0152 q 0,0.51804 0.19807,0.97513 0.19807,0.44185 0.53327,0.77705 0.3352,0.3352 0.77705,0.53327 0.45709,0.19807 0.97513,0.19807 0.57897,0 1.09701,-0.25902 0.53327,-0.25901 0.8837,-0.73134 0.0762,-0.10665 0.13713,-0.22854 0.0762,-0.12189 0.13713,-0.24378 0.0762,-0.1676 0.24378,-0.22855 0.18283,-0.0609 0.35043,0.0152 0.1676,0.0762 0.22855,0.25902 0.0762,0.1676 0,0.33519 -0.1676,0.36568 -0.38091,0.63993 -0.48756,0.63992 -1.18843,0.99036 -0.70087,0.35043 -1.50839,0.35043 z m -2.30069,-4.31187 h 4.60137 q -0.27426,-0.68563 -0.89894,-1.11225 -0.62469,-0.44185 -1.40174,-0.44185 -0.79229,0 -1.41698,0.44185 -0.60945,0.42662 -0.88371,1.11225 z"
         id="path554" />
      <path
         d="m -83.655292,487.97156 q 0.182836,0 0.304726,0.13712 0.137127,0.1219 0.137127,0.30473 0,0.18284 -0.137127,0.31996 -0.12189,0.12189 -0.304726,0.12189 h -3.778602 q -0.426617,0 -0.807524,-0.15236 -0.365671,-0.1676 -0.655161,-0.44185 -0.274254,-0.28949 -0.441853,-0.65516 -0.152363,-0.38091 -0.152363,-0.80753 v -7.86193 q 0,-0.18283 0.121891,-0.30472 0.137126,-0.13713 0.319962,-0.13713 0.182835,0 0.304726,0.13713 0.137127,0.12189 0.137127,0.30472 v 7.86193 q 0,0.48756 0.335198,0.838 0.350435,0.3352 0.837997,0.3352 h 3.778602 z"
         id="path556" />
      <path
         d="m -81.99454,482.09035 q 0.167599,0 0.28949,0.13712 0.12189,0.12189 0.12189,0.28949 v 5.91169 q 0,0.18283 -0.12189,0.30472 -0.121891,0.12189 -0.28949,0.12189 -0.182836,0 -0.304726,-0.12189 -0.121891,-0.12189 -0.121891,-0.30472 v -5.91169 q 0,-0.1676 0.121891,-0.28949 0.12189,-0.13712 0.304726,-0.13712 z m 0,-3.03203 q 0.259017,0 0.441853,0.18284 0.182835,0.18283 0.182835,0.44185 0,0.25902 -0.182835,0.44185 -0.182836,0.1676 -0.441853,0.1676 -0.259017,0 -0.441853,-0.1676 -0.167599,-0.18283 -0.167599,-0.44185 0,-0.25902 0.167599,-0.44185 0.182836,-0.18284 0.441853,-0.18284 z"
         id="path558" />
      <path
         d="m -75.549597,488.85526 q -0.70087,0 -1.325559,-0.25901 -0.609452,-0.27426 -1.066541,-0.73135 -0.457089,-0.45709 -0.731342,-1.06654 -0.259017,-0.62469 -0.259017,-1.32556 0,-0.70087 0.259017,-1.31032 0.274253,-0.62469 0.731342,-1.08177 0.457089,-0.45709 1.066541,-0.71611 0.624689,-0.27425 1.325559,-0.27425 0.731342,0 1.371267,0.28949 0.655161,0.28949 1.142722,0.82276 0.121891,0.13712 0.106654,0.33519 0,0.18284 -0.152363,0.30473 -0.137126,0.12189 -0.319962,0.12189 -0.182836,-0.0152 -0.304726,-0.15236 -0.350435,-0.39615 -0.837997,-0.60945 -0.472325,-0.21331 -1.005595,-0.21331 -0.518035,0 -0.975124,0.19807 -0.441852,0.19807 -0.777051,0.53327 -0.335199,0.3352 -0.53327,0.79229 -0.198072,0.44185 -0.198072,0.95988 0,0.51804 0.198072,0.97513 0.198071,0.44185 0.53327,0.77705 0.335199,0.3352 0.777051,0.53327 0.457089,0.19807 0.975124,0.19807 0.182835,0 0.304726,0.13713 0.137126,0.12189 0.137126,0.31996 0,0.18284 -0.137126,0.31996 -0.121891,0.12189 -0.304726,0.12189 z"
         id="path560" />
      <path
         d="m -68.15998,488.85526 q -0.700869,0 -1.325558,-0.25901 -0.609452,-0.27426 -1.066541,-0.73135 -0.457089,-0.45709 -0.731342,-1.06654 -0.259017,-0.62469 -0.259017,-1.32556 0,-0.70087 0.259017,-1.31032 0.274253,-0.62469 0.731342,-1.08177 0.457089,-0.45709 1.066541,-0.71611 0.624689,-0.27425 1.325558,-0.27425 0.624689,0 1.188432,0.2133 0.563743,0.21331 1.005596,0.59422 0.441852,0.36567 0.746578,0.89894 0.304726,0.51804 0.396144,1.12749 0.03047,0.22854 -0.106654,0.36567 -0.12189,0.1676 -0.335198,0.1676 h -5.378414 v 0.0152 q 0,0.51804 0.198071,0.97513 0.198072,0.44185 0.533271,0.77705 0.335199,0.3352 0.777051,0.53327 0.457089,0.19807 0.975123,0.19807 0.57898,0 1.097014,-0.25902 0.533271,-0.25901 0.883706,-0.73134 0.07618,-0.10665 0.137126,-0.22854 0.07618,-0.12189 0.137127,-0.24378 0.07618,-0.1676 0.243781,-0.22855 0.182835,-0.0609 0.350435,0.0152 0.167599,0.0762 0.228544,0.25902 0.07618,0.1676 0,0.33519 -0.167599,0.36568 -0.380907,0.63993 -0.487562,0.63992 -1.188432,0.99036 -0.70087,0.35043 -1.508394,0.35043 z m -2.300681,-4.31187 h 4.601363 q -0.274254,-0.68563 -0.898942,-1.11225 -0.624688,-0.44185 -1.40174,-0.44185 -0.792287,0 -1.416975,0.44185 -0.609452,0.42662 -0.883706,1.11225 z"
         id="path562" />
      <path
         d="m -60.678963,482.09035 q 0.563744,0 1.066541,0.2133 0.502798,0.21331 0.86847,0.59422 0.380907,0.38091 0.594215,0.88371 0.213309,0.50279 0.213309,1.06654 v 3.55005 q 0,0.18284 -0.137127,0.31997 -0.121891,0.12189 -0.304726,0.12189 -0.182836,0 -0.319963,-0.12189 -0.137126,-0.13713 -0.137126,-0.31997 v -3.55005 q 0,-0.38091 -0.152363,-0.71611 -0.137127,-0.35043 -0.396144,-0.59422 -0.243781,-0.25901 -0.578979,-0.39614 -0.335199,-0.15236 -0.716107,-0.15236 -0.380907,0 -0.731342,0.15236 -0.335199,0.13713 -0.594216,0.39614 -0.243781,0.24379 -0.396144,0.59422 -0.137126,0.3352 -0.137126,0.71611 v 3.56529 q 0,0.18284 -0.137127,0.31996 -0.12189,0.12189 -0.319962,0.12189 -0.182836,0 -0.319963,-0.12189 -0.12189,-0.13712 -0.12189,-0.31996 v -5.86597 q 0,-0.18284 0.12189,-0.30473 0.137127,-0.13713 0.319963,-0.13713 0.198072,0 0.319962,0.13713 0.137127,0.12189 0.137127,0.30473 v 0.27425 q 0.365671,-0.35044 0.837996,-0.53327 0.487562,-0.19807 1.020832,-0.19807 z"
         id="path564" />
      <path
         d="m -54.27973,488.85526 q -0.472325,0 -0.883705,-0.1676 -0.41138,-0.18283 -0.716106,-0.48756 -0.304726,-0.30472 -0.487562,-0.7161 -0.167599,-0.41138 -0.167599,-0.88371 0,-0.65516 0.380908,-1.24938 0.106654,-0.15236 0.274253,-0.18283 0.182836,-0.0457 0.350435,0.0609 0.152363,0.10666 0.182835,0.28949 0.04571,0.1676 -0.06094,0.3352 -0.228544,0.35044 -0.228544,0.74658 0,0.56374 0.396144,0.95989 0.396143,0.39614 0.959886,0.39614 0.563744,0 0.944651,-0.39614 0.396144,-0.39615 0.396144,-0.95989 0,-0.56374 -0.396144,-0.94465 -0.380907,-0.39614 -0.944651,-0.39614 h -0.03047 q -0.319962,-0.0152 -0.609452,-0.13713 -0.274254,-0.13713 -0.487562,-0.35044 -0.198072,-0.2133 -0.319962,-0.48756 -0.12189,-0.28949 -0.12189,-0.60945 0,-0.31996 0.12189,-0.60945 0.12189,-0.28949 0.335199,-0.5028 0.213308,-0.22854 0.502797,-0.35043 0.28949,-0.12189 0.624689,-0.12189 0.319962,0 0.609452,0.12189 0.289489,0.12189 0.502798,0.35043 0.213308,0.21331 0.335198,0.5028 0.121891,0.28949 0.121891,0.60945 0,0.18284 -0.137127,0.31996 -0.12189,0.12189 -0.304726,0.12189 -0.182836,0 -0.319962,-0.12189 -0.121891,-0.13712 -0.121891,-0.31996 0,-0.28949 -0.213308,-0.48756 -0.198072,-0.19807 -0.472325,-0.19807 -0.28949,0 -0.487562,0.19807 -0.198072,0.19807 -0.198072,0.48756 0,0.28949 0.198072,0.48756 0.198072,0.19807 0.487562,0.19807 0.457089,0 0.868469,0.18284 0.41138,0.18284 0.70087,0.48756 0.304726,0.30473 0.472325,0.71611 0.182836,0.39614 0.182836,0.85323 0,0.47233 -0.182836,0.88371 -0.167599,0.41138 -0.472325,0.7161 -0.304726,0.30473 -0.716106,0.48756 -0.411381,0.1676 -0.86847,0.1676 z"
         id="path566" />
      <path
         d="m -47.286269,488.85526 q -0.70087,0 -1.325558,-0.25901 -0.609452,-0.27426 -1.066541,-0.73135 -0.457089,-0.45709 -0.731342,-1.06654 -0.259018,-0.62469 -0.259018,-1.32556 0,-0.70087 0.259018,-1.31032 0.274253,-0.62469 0.731342,-1.08177 0.457089,-0.45709 1.066541,-0.71611 0.624688,-0.27425 1.325558,-0.27425 0.624688,0 1.188432,0.2133 0.563743,0.21331 1.005595,0.59422 0.441853,0.36567 0.746579,0.89894 0.304726,0.51804 0.396144,1.12749 0.03047,0.22854 -0.106654,0.36567 -0.121891,0.1676 -0.335199,0.1676 h -5.378414 v 0.0152 q 0,0.51804 0.198072,0.97513 0.198072,0.44185 0.533271,0.77705 0.335198,0.3352 0.777051,0.53327 0.457089,0.19807 0.975123,0.19807 0.57898,0 1.097014,-0.25902 0.53327,-0.25901 0.883705,-0.73134 0.07618,-0.10665 0.137127,-0.22854 0.07618,-0.12189 0.137127,-0.24378 0.07618,-0.1676 0.24378,-0.22855 0.182836,-0.0609 0.350435,0.0152 0.1676,0.0762 0.228545,0.25902 0.07618,0.1676 0,0.33519 -0.167599,0.36568 -0.380908,0.63993 -0.487561,0.63992 -1.188431,0.99036 -0.70087,0.35043 -1.508394,0.35043 z m -2.300681,-4.31187 h 4.601362 q -0.274253,-0.68563 -0.898941,-1.11225 -0.624689,-0.44185 -1.40174,-0.44185 -0.792288,0 -1.416976,0.44185 -0.609452,0.42662 -0.883705,1.11225 z"
         id="path568" />
      <path
         d="m -24.698199,488.85526 h -4.768962 q -0.198072,0 -0.350435,-0.15236 -0.121891,-0.13713 -0.137127,-0.31996 -0.01524,-0.19807 0.106654,-0.3352 l 4.525181,-5.54601 q 0.472326,-0.54851 0.472326,-1.21891 0,-0.38091 -0.152363,-0.70087 -0.137127,-0.3352 -0.396144,-0.57898 -0.243781,-0.24378 -0.57898,-0.3809 -0.319962,-0.15237 -0.700869,-0.15237 -0.365672,0 -0.70087,0.15237 -0.335199,0.13712 -0.57898,0.3809 -0.243781,0.24378 -0.396144,0.57898 -0.137126,0.31996 -0.137126,0.70087 0,0.77705 0.563743,1.31032 0.152363,0.13713 0.152363,0.3352 0,0.19807 -0.137127,0.35044 -0.137127,0.15236 -0.335198,0.15236 -0.198072,0 -0.350435,-0.13713 -0.41138,-0.39614 -0.639925,-0.91417 -0.213308,-0.51804 -0.213308,-1.09702 0,-0.57898 0.213308,-1.08178 0.228545,-0.51803 0.594216,-0.8837 0.380907,-0.38091 0.883705,-0.59422 0.502798,-0.22854 1.081778,-0.22854 0.578979,0 1.081777,0.22854 0.518034,0.21331 0.883705,0.59422 0.380908,0.36567 0.594216,0.8837 0.228545,0.5028 0.228545,1.08178 0,1.06654 -0.70087,1.84359 l -3.885257,4.76897 h 3.778603 q 0.198072,0 0.335198,0.13712 0.152363,0.13713 0.152363,0.3352 0,0.21331 -0.152363,0.35044 -0.137126,0.13712 -0.335198,0.13712 z"
         id="path570" />
      <path
         d="m -21.300491,487.39258 q 0.304726,0 0.518034,0.21331 0.228545,0.21331 0.228545,0.51803 0,0.30473 -0.228545,0.51804 -0.213308,0.2133 -0.518034,0.2133 -0.304726,0 -0.518034,-0.2133 -0.213308,-0.21331 -0.213308,-0.51804 0,-0.30472 0.213308,-0.51803 0.213308,-0.21331 0.518034,-0.21331 z"
         id="path572" />
      <path
         d="m -12.143462,485.53375 q 0.01524,0.65516 -0.228544,1.26461 -0.243781,0.59422 -0.70087,1.06654 -0.472326,0.47233 -1.066541,0.73135 -0.594216,0.24378 -1.249377,0.25901 h -0.04571 q -0.655161,0 -1.249376,-0.24378 -0.57898,-0.24378 -1.051305,-0.68563 -0.472325,-0.47233 -0.731343,-1.06654 -0.24378,-0.59422 -0.259017,-1.26461 v -3.77861 q 0,-0.68563 0.243781,-1.27985 0.259017,-0.60945 0.70087,-1.0513 0.441853,-0.45709 1.036068,-0.71611 0.594216,-0.27425 1.27985,-0.27425 0.685633,0 1.279849,0.25902 0.609452,0.24378 1.051305,0.68563 0.457089,0.44185 0.716106,1.03607 0.274253,0.59421 0.274253,1.27985 z m -1.615048,1.66076 q 0.319963,-0.3352 0.487562,-0.76182 0.182835,-0.42661 0.167599,-0.89894 v -3.7786 q 0,-0.47233 -0.198072,-0.88371 -0.182835,-0.42661 -0.502798,-0.73134 -0.304726,-0.31996 -0.731342,-0.5028 -0.426616,-0.18283 -0.898942,-0.18283 h -0.03047 q -0.487562,0 -0.914178,0.19807 -0.411381,0.18283 -0.731343,0.5028 -0.304726,0.31996 -0.487561,0.76181 -0.1676,0.42662 -0.1676,0.89894 v 3.77861 q 0.03047,0.97512 0.70087,1.63028 0.335199,0.3352 0.761815,0.51803 0.426617,0.1676 0.898942,0.15237 0.472325,0 0.883705,-0.18284 0.426617,-0.18283 0.761815,-0.51803 z"
         id="path574" />
    </g>
    <g
       id="lettering"
       transform="matrix(0.26458333,0,0,0.26458333,-10.279359,1.09778)">
      <g
         aria-label="OLEA"
         id="text6"
         style="font-weight:bold;font-size:221.63px;font-family:Break;-inkscape-font-specification:'Break, Bold';dominant-baseline:middle;text-anchor:middle;fill:#70e0d0;stroke-width:1.10814"
         class="custom">
        <path
           d="m 155.10431,221.89809 q 15.5141,0 29.25516,5.98401 13.74106,5.98401 23.93604,16.17899 10.19498,10.19498 16.17899,23.93604 5.98401,13.74106 5.98401,29.25516 0,15.73573 -5.98401,29.47679 -5.98401,13.51943 -16.17899,23.93604 -10.19498,10.19498 -23.93604,16.17899 -13.74106,5.76238 -29.25516,5.76238 -15.73573,0 -29.47679,-5.76238 -13.51943,-5.98401 -23.93604,-16.17899 -10.19498,-10.41661 -16.17899,-23.93604 -5.76238,-13.74106 -5.76238,-29.47679 0,-9.75172 2.43793,-18.83855 2.43793,-9.30846 6.87053,-17.7304 1.32978,-2.43793 3.76771,-3.10282 2.65956,-0.66489 5.09749,0.66489 2.43793,1.32978 3.10282,3.98934 0.66489,2.43793 -0.66489,4.87586 -7.75705,13.74106 -7.75705,30.14168 0,12.85454 4.87586,24.3793 5.09749,11.30313 13.51943,19.72507 8.42194,8.42194 19.72507,13.51943 11.52476,4.87586 24.3793,4.87586 12.85454,0 24.15767,-4.87586 11.52476,-5.09749 19.9467,-13.51943 8.42194,-8.42194 13.2978,-19.72507 5.09749,-11.52476 5.09749,-24.3793 0,-12.85454 -5.09749,-24.15767 -4.87586,-11.52476 -13.2978,-19.9467 -8.42194,-8.42194 -19.9467,-13.2978 -11.30313,-5.09749 -24.15767,-5.09749 -16.17899,0 -30.36331,7.75705 -2.43793,1.32978 -4.87586,0.66489 -2.43793,-0.66489 -3.76771,-3.10282 -1.32978,-2.43793 -0.66489,-4.87586 0.66489,-2.65956 3.10282,-3.76771 17.06551,-9.53009 36.56895,-9.53009 z"
           id="path577" />
        <path
           d="m 256.83259,319.41529 q -2.65956,0 -4.65423,-1.77304 -1.77304,-1.99467 -1.77304,-4.65423 v -84.66266 q 0,-2.65956 1.77304,-4.4326 1.99467,-1.99467 4.65423,-1.99467 2.65956,0 4.4326,1.99467 1.99467,1.77304 1.99467,4.4326 v 84.66266 q 0,2.65956 -1.99467,4.65423 -1.77304,1.77304 -4.4326,1.77304 z m 78.45702,40.33666 q 2.65956,0 4.4326,1.99467 1.99467,1.77304 1.99467,4.4326 0,2.65956 -1.99467,4.65423 -1.77304,1.77304 -4.4326,1.77304 h -54.96424 q -6.20564,0 -11.74639,-2.2163 -5.31912,-2.43793 -9.53009,-6.42727 -3.98934,-4.21097 -6.42727,-9.53009 -2.2163,-5.54075 -2.2163,-11.74639 0,-2.65956 1.77304,-4.4326 1.99467,-1.99467 4.65423,-1.99467 2.65956,0 4.4326,1.99467 1.99467,1.77304 1.99467,4.4326 0,7.09216 4.87586,12.18965 5.09749,4.87586 12.18965,4.87586 z"
           id="path579" />
        <path
           d="m 440.12041,359.75195 q 2.88119,0 4.65423,1.99467 1.99467,1.77304 1.99467,4.4326 0,2.65956 -1.99467,4.65423 -1.77304,1.77304 -4.65423,1.77304 h -47.65045 -0.44326 q -5.76238,-0.22163 -10.85987,-2.43793 -4.87586,-2.2163 -8.64357,-5.76238 -3.76771,-3.76771 -6.20564,-8.64357 -2.2163,-4.87586 -2.43793,-10.63824 v -0.66489 -86.4357 -1.99467 q 0,-2.65956 1.77304,-4.4326 1.99467,-1.99467 4.65423,-1.99467 2.65956,0 4.4326,1.99467 1.99467,1.77304 1.99467,4.4326 v 1.99467 32.80124 h 28.59027 q 2.65956,0 4.4326,1.99467 1.99467,1.77304 1.99467,4.4326 0,2.65956 -1.99467,4.65423 -1.77304,1.77304 -4.4326,1.77304 h -28.59027 v 40.11503 q 0,6.6489 4.65423,11.30313 4.65423,4.65423 11.30313,4.65423 z M 370.30696,234.75263 q -2.65956,0 -4.65423,-1.77304 -1.77304,-1.99467 -1.77304,-4.65423 0,-2.65956 1.77304,-4.4326 1.99467,-1.99467 4.65423,-1.99467 h 62.0564 q 2.65956,0 4.4326,1.99467 1.99467,1.77304 1.99467,4.4326 0,2.65956 -1.99467,4.65423 -1.77304,1.77304 -4.4326,1.77304 z"
           id="path581" />
        <path
           d="m 604.34845,363.51966 q 1.10815,2.43793 0,5.09749 -0.88652,2.43793 -3.32445,3.54608 -1.77304,0.44326 -2.65956,0.44326 -4.21097,0 -5.98401,-3.76771 l -55.4075,-124.77769 -27.92539,62.27803 h 31.47147 q 2.88119,0 4.65423,1.99467 1.99467,1.77304 1.99467,4.4326 0,2.65956 -1.99467,4.65423 -1.77304,1.99467 -4.65423,1.99467 h -37.23385 l -21.94137,49.42349 q -1.77304,3.76771 -5.98401,3.76771 -0.88652,0 -2.65956,-0.44326 -2.43793,-1.10815 -3.54608,-3.54608 -0.88652,-2.65956 0.22163,-5.09749 l 23.71441,-53.1912 37.89873,-84.66266 q 1.32978,-3.32445 5.54076,-3.76771 h 0.66489 q 3.98934,0.44326 5.76238,3.76771 l 61.39151,137.85386 z"
           id="path583" />
      </g>
      <g
         aria-label="Open Learning
Education App"
         id="text6-5"
         style="font-weight:bold;font-size:90.0251px;font-family:'Break Fill';-inkscape-font-specification:'Break Fill, Bold';dominant-baseline:middle;display:inline;fill:#70e0d0;stroke-width:1.65111"
         class="custom">
        <path
           d="m 685.75657,283.11414 q -6.39178,0 -11.97334,-2.34065 -5.49153,-2.43068 -9.72271,-6.57183 -4.14115,-4.23118 -6.57183,-9.72271 -2.34065,-5.58156 -2.34065,-11.97334 0,-6.30176 2.34065,-11.88331 2.43068,-5.58156 6.57183,-9.72272 4.23118,-4.14115 9.72271,-6.57183 5.58156,-2.43068 11.97334,-2.43068 6.30176,0 11.88331,2.43068 5.58156,2.43068 9.72271,6.57183 4.14116,4.14116 6.57184,9.72272 2.43067,5.58155 2.43067,11.88331 0,6.39178 -2.43067,11.97334 -2.43068,5.49153 -6.57184,9.72271 -4.14115,4.14115 -9.72271,6.57183 -5.58155,2.34065 -11.88331,2.34065 z m 0,-55.99561 q -5.22146,0 -9.90276,2.07058 -4.59128,1.98055 -8.01223,5.4015 -3.42096,3.42096 -5.49154,8.10226 -1.98055,4.59128 -1.98055,9.81274 0,5.22145 1.98055,9.90276 2.07058,4.59128 5.49154,8.01223 3.42095,3.42096 8.01223,5.49154 4.6813,1.98055 9.90276,1.98055 5.22146,0 9.81274,-1.98055 4.6813,-2.07058 8.10226,-5.49154 3.42095,-3.42095 5.4015,-8.01223 2.07058,-4.68131 2.07058,-9.90276 0,-5.22146 -2.07058,-9.81274 -1.98055,-4.6813 -5.4015,-8.10226 -3.42096,-3.42095 -8.10226,-5.4015 -4.59128,-2.07058 -9.81274,-2.07058 z"
           id="path586" />
        <path
           d="m 746.25339,243.143 q 4.14115,0 7.74216,1.62045 3.69102,1.53043 6.39178,4.23118 2.70075,2.70075 4.23118,6.39178 1.62045,3.60101 1.62045,7.74216 0,4.14116 -1.62045,7.83218 -1.53043,3.60101 -4.23118,6.30176 -2.70076,2.70075 -6.39178,4.32121 -3.60101,1.53042 -7.74216,1.53042 -4.32121,0 -8.10226,-1.71047 -3.78106,-1.71048 -6.57183,-4.68131 v 27.27761 q 0,1.0803 -0.81023,1.8005 -0.7202,0.81022 -1.89053,0.81022 -1.0803,0 -1.89052,-0.81022 -0.72021,-0.7202 -0.72021,-1.8005 v -58.15622 q 0,-1.17032 0.72021,-1.89053 0.81022,-0.81022 1.89052,-0.81022 1.17033,0 1.89053,0.81022 0.81023,0.72021 0.81023,1.89053 v 3.78106 q 2.79077,-2.97083 6.57183,-4.68131 3.78105,-1.8005 8.10226,-1.8005 z m 0,34.65966 q 3.06085,0 5.67158,-1.17032 2.70075,-1.17033 4.6813,-3.15088 1.98056,-1.98055 3.15088,-4.59128 1.17033,-2.70076 1.17033,-5.76161 0,-3.06085 -1.17033,-5.67158 -1.17032,-2.70075 -3.15088,-4.68131 -1.98055,-1.98055 -4.6813,-3.15087 -2.61073,-1.17033 -5.67158,-1.17033 -3.06086,0 -5.76161,1.17033 -2.61073,1.17032 -4.59128,3.15087 -1.98055,1.98056 -3.15088,4.68131 -1.17032,2.61073 -1.17032,5.67158 0,3.06085 1.17032,5.76161 1.17033,2.61073 3.15088,4.59128 1.98055,1.98055 4.59128,3.15088 2.70075,1.17032 5.76161,1.17032 z"
           id="path588" />
        <path
           d="m 794.32683,283.11414 q -4.14116,0 -7.83219,-1.53042 -3.601,-1.62046 -6.30175,-4.32121 -2.70076,-2.70075 -4.32121,-6.30176 -1.53042,-3.69102 -1.53042,-7.83218 0,-4.14115 1.53042,-7.74216 1.62045,-3.69103 4.32121,-6.39178 2.70075,-2.70075 6.30175,-4.23118 3.69103,-1.62045 7.83219,-1.62045 3.69103,0 7.02196,1.26035 3.33092,1.26035 5.94165,3.51098 2.61073,2.1606 4.41123,5.31148 1.8005,3.06085 2.34065,6.66186 0.18005,1.35037 -0.63017,2.1606 -0.7202,0.99028 -1.98055,0.99028 h -31.77886 v 0.09 q 0,3.06085 1.17032,5.76161 1.17033,2.61073 3.15088,4.59128 1.98055,1.98055 4.59128,3.15088 2.70075,1.17032 5.76161,1.17032 3.42095,0 6.4818,-1.53042 3.15088,-1.53043 5.22146,-4.32121 0.45013,-0.63017 0.81023,-1.35038 0.45012,-0.7202 0.81022,-1.4404 0.45013,-0.99027 1.4404,-1.35037 1.08031,-0.3601 2.07058,0.09 0.99028,0.45013 1.35038,1.53043 0.45012,0.99027 0,1.98055 -0.99028,2.1606 -2.25063,3.78105 -2.8808,3.78106 -7.02196,5.85164 -4.14115,2.07057 -8.91248,2.07057 z m -13.59379,-25.4771 h 27.18758 q -1.62045,-4.05113 -5.31148,-6.57183 -3.69103,-2.61073 -8.28231,-2.61073 -4.68131,0 -8.37234,2.61073 -3.601,2.5207 -5.22145,6.57183 z"
           id="path590" />
        <path
           d="m 838.52912,243.143 q 3.33093,0 6.30175,1.26035 2.97083,1.26035 5.13143,3.51098 2.25063,2.25063 3.51098,5.22145 1.26035,2.97083 1.26035,6.30176 v 20.97585 q 0,1.0803 -0.81022,1.89053 -0.7202,0.7202 -1.8005,0.7202 -1.0803,0 -1.89053,-0.7202 -0.81023,-0.81023 -0.81023,-1.89053 v -20.97585 q 0,-2.25063 -0.90025,-4.23118 -0.81022,-2.07058 -2.34065,-3.51098 -1.4404,-1.53042 -3.42095,-2.34065 -1.98056,-0.90025 -4.23118,-0.90025 -2.25063,0 -4.32121,0.90025 -1.98055,0.81023 -3.51098,2.34065 -1.4404,1.4404 -2.34065,3.51098 -0.81023,1.98055 -0.81023,4.23118 v 21.06588 q 0,1.0803 -0.81022,1.89052 -0.7202,0.7202 -1.89053,0.7202 -1.0803,0 -1.89053,-0.7202 -0.7202,-0.81022 -0.7202,-1.89052 v -34.65967 q 0,-1.0803 0.7202,-1.8005 0.81023,-0.81023 1.89053,-0.81023 1.17033,0 1.89053,0.81023 0.81022,0.7202 0.81022,1.8005 v 1.62045 q 2.16061,-2.07057 4.95138,-3.15088 2.88081,-1.17032 6.03169,-1.17032 z"
           id="path592" />
        <path
           d="m 929.0043,277.89269 q 1.0803,0 1.8005,0.81022 0.81023,0.7202 0.81023,1.80051 0,1.0803 -0.81023,1.89052 -0.7202,0.7202 -1.8005,0.7202 h -22.32622 q -2.52071,0 -4.77133,-0.90025 -2.16061,-0.99027 -3.87108,-2.61073 -1.62045,-1.71047 -2.61073,-3.87107 -0.90025,-2.25063 -0.90025,-4.77134 V 224.5078 q 0,-1.0803 0.7202,-1.8005 0.81023,-0.81023 1.89053,-0.81023 1.0803,0 1.8005,0.81023 0.81022,0.7202 0.81022,1.8005 v 46.45295 q 0,2.88081 1.98056,4.95139 2.07057,1.98055 4.95138,1.98055 h 22.32622 z"
           id="path594" />
        <path
           d="m 955.20158,283.11414 q -4.14116,0 -7.83219,-1.53042 -3.601,-1.62046 -6.30176,-4.32121 -2.70075,-2.70075 -4.3212,-6.30176 -1.53043,-3.69102 -1.53043,-7.83218 0,-4.14115 1.53043,-7.74216 1.62045,-3.69103 4.3212,-6.39178 2.70076,-2.70075 6.30176,-4.23118 3.69103,-1.62045 7.83219,-1.62045 3.69102,0 7.02195,1.26035 3.33093,1.26035 5.94166,3.51098 2.61073,2.1606 4.41123,5.31148 1.8005,3.06085 2.34065,6.66186 0.18005,1.35037 -0.63017,2.1606 -0.7202,0.99028 -1.98056,0.99028 h -31.77886 v 0.09 q 0,3.06085 1.17033,5.76161 1.17033,2.61073 3.15088,4.59128 1.98055,1.98055 4.59128,3.15088 2.70075,1.17032 5.76161,1.17032 3.42095,0 6.4818,-1.53042 3.15088,-1.53043 5.22146,-4.32121 0.45012,-0.63017 0.81022,-1.35038 0.45013,-0.7202 0.81023,-1.4404 0.45013,-0.99027 1.4404,-1.35037 1.0803,-0.3601 2.07058,0.09 0.99028,0.45013 1.35038,1.53043 0.45012,0.99027 0,1.98055 -0.99028,2.1606 -2.25063,3.78105 -2.8808,3.78106 -7.02196,5.85164 -4.14115,2.07057 -8.91248,2.07057 z m -13.59379,-25.4771 h 27.18758 q -1.62046,-4.05113 -5.31148,-6.57183 -3.69103,-2.61073 -8.28231,-2.61073 -4.68131,0 -8.37234,2.61073 -3.601,2.5207 -5.22145,6.57183 z"
           id="path596" />
        <path
           d="m 1018.5792,243.23302 q 1.1703,0 1.8905,0.81023 0.8103,0.7202 0.8103,1.8005 v 34.65967 q 0,1.0803 -0.8103,1.89052 -0.7202,0.7202 -1.8905,0.7202 -1.0803,0 -1.8905,-0.7202 -0.7202,-0.81022 -0.7202,-1.89052 v -3.87108 q -2.7908,2.97082 -6.5719,4.77133 -3.781,1.71047 -8.1022,1.71047 -4.14117,0 -7.8322,-1.53042 -3.601,-1.62046 -6.30176,-4.32121 -2.70075,-2.70075 -4.23118,-6.30176 -1.62045,-3.69102 -1.62045,-7.83218 0,-4.14115 1.62045,-7.74216 1.53043,-3.69103 4.23118,-6.39178 2.70076,-2.70075 6.30176,-4.23118 3.69103,-1.62045 7.8322,-1.62045 4.3212,0 8.1022,1.8005 3.7811,1.71048 6.5719,4.68131 v -3.78106 q 0,-1.0803 0.7202,-1.8005 0.8102,-0.81023 1.8905,-0.81023 z m -17.2848,34.56964 q 3.0608,0 5.6716,-1.17032 2.7007,-1.17033 4.6813,-3.15088 1.9805,-1.98055 3.1508,-4.59128 1.1704,-2.70076 1.1704,-5.76161 0,-3.06085 -1.1704,-5.67158 -1.1703,-2.70075 -3.1508,-4.68131 -1.9806,-1.98055 -4.6813,-3.15087 -2.6108,-1.17033 -5.6716,-1.17033 -3.06087,0 -5.76162,1.17033 -2.61073,1.17032 -4.59128,3.15087 -1.98055,1.98056 -3.15088,4.68131 -1.17033,2.61073 -1.17033,5.67158 0,3.06085 1.17033,5.76161 1.17033,2.61073 3.15088,4.59128 1.98055,1.98055 4.59128,3.15088 2.70075,1.17032 5.76162,1.17032 z"
           id="path598" />
        <path
           d="m 1050.268,243.143 q 1.0803,0 1.8005,0.81022 0.8103,0.72021 0.8103,1.80051 0,1.17032 -0.8103,1.98055 -0.7202,0.7202 -1.8005,0.7202 -3.0608,0 -5.7616,1.17033 -2.6107,1.17032 -4.5912,3.15087 -1.9806,1.98056 -3.1509,4.68131 -1.1703,2.61073 -1.1703,5.67158 v 17.28482 q 0,1.17033 -0.8103,1.98055 -0.7202,0.7202 -1.8905,0.7202 -1.0803,0 -1.8905,-0.7202 -0.7202,-0.81022 -0.7202,-1.98055 v -34.56964 q 0,-1.0803 0.7202,-1.8005 0.8102,-0.81023 1.8905,-0.81023 1.1703,0 1.8905,0.81023 0.8103,0.7202 0.8103,1.8005 v 3.78106 q 2.7907,-2.97083 6.5718,-4.68131 3.781,-1.8005 8.1022,-1.8005 z"
           id="path600" />
        <path
           d="m 1078.1758,243.143 q 3.331,0 6.3018,1.26035 2.9708,1.26035 5.1314,3.51098 2.2506,2.25063 3.511,5.22145 1.2603,2.97083 1.2603,6.30176 v 20.97585 q 0,1.0803 -0.8102,1.89053 -0.7202,0.7202 -1.8005,0.7202 -1.0803,0 -1.8905,-0.7202 -0.8102,-0.81023 -0.8102,-1.89053 v -20.97585 q 0,-2.25063 -0.9003,-4.23118 -0.8102,-2.07058 -2.3406,-3.51098 -1.4404,-1.53042 -3.421,-2.34065 -1.9805,-0.90025 -4.2312,-0.90025 -2.2506,0 -4.3212,0.90025 -1.9805,0.81023 -3.511,2.34065 -1.4404,1.4404 -2.3406,3.51098 -0.8102,1.98055 -0.8102,4.23118 v 21.06588 q 0,1.0803 -0.8103,1.89052 -0.7202,0.7202 -1.8905,0.7202 -1.0803,0 -1.8905,-0.7202 -0.7202,-0.81022 -0.7202,-1.89052 v -34.65967 q 0,-1.0803 0.7202,-1.8005 0.8102,-0.81023 1.8905,-0.81023 1.1703,0 1.8905,0.81023 0.8103,0.7202 0.8103,1.8005 v 1.62045 q 2.1606,-2.07057 4.9513,-3.15088 2.8809,-1.17032 6.0317,-1.17032 z"
           id="path602" />
        <path
           d="m 1106.2636,243.143 q 0.9902,0 1.7104,0.81022 0.7202,0.72021 0.7202,1.71048 v 34.92974 q 0,1.0803 -0.7202,1.8005 -0.7202,0.7202 -1.7104,0.7202 -1.0803,0 -1.8005,-0.7202 -0.7202,-0.7202 -0.7202,-1.8005 V 245.6637 q 0,-0.99027 0.7202,-1.71048 0.7202,-0.81022 1.8005,-0.81022 z m 0,-17.915 q 1.5304,0 2.6107,1.0803 1.0803,1.08031 1.0803,2.61073 0,1.53043 -1.0803,2.61073 -1.0803,0.99028 -2.6107,0.99028 -1.5305,0 -2.6108,-0.99028 -0.9902,-1.0803 -0.9902,-2.61073 0,-1.53042 0.9902,-2.61073 1.0803,-1.0803 2.6108,-1.0803 z"
           id="path604" />
        <path
           d="m 1140.6531,243.143 q 3.3309,0 6.3018,1.26035 2.9708,1.26035 5.1314,3.51098 2.2506,2.25063 3.511,5.22145 1.2603,2.97083 1.2603,6.30176 v 20.97585 q 0,1.0803 -0.8102,1.89053 -0.7202,0.7202 -1.8005,0.7202 -1.0803,0 -1.8905,-0.7202 -0.8103,-0.81023 -0.8103,-1.89053 v -20.97585 q 0,-2.25063 -0.9002,-4.23118 -0.8102,-2.07058 -2.3407,-3.51098 -1.4404,-1.53042 -3.4209,-2.34065 -1.9806,-0.90025 -4.2312,-0.90025 -2.2506,0 -4.3212,0.90025 -1.9806,0.81023 -3.511,2.34065 -1.4404,1.4404 -2.3406,3.51098 -0.8103,1.98055 -0.8103,4.23118 v 21.06588 q 0,1.0803 -0.8102,1.89052 -0.7202,0.7202 -1.8905,0.7202 -1.0803,0 -1.8905,-0.7202 -0.7202,-0.81022 -0.7202,-1.89052 v -34.65967 q 0,-1.0803 0.7202,-1.8005 0.8102,-0.81023 1.8905,-0.81023 1.1703,0 1.8905,0.81023 0.8102,0.7202 0.8102,1.8005 v 1.62045 q 2.1606,-2.07057 4.9514,-3.15088 2.8808,-1.17032 6.0317,-1.17032 z"
           id="path606" />
        <path
           d="m 1202.5002,243.23302 q 1.0803,0 1.8006,0.81023 0.8102,0.7202 0.8102,1.8005 v 44.4724 q 0,4.14116 -1.6205,7.74216 -1.5304,3.601 -4.2312,6.30176 -2.7007,2.70075 -6.3017,4.23118 -3.601,1.62045 -7.7422,1.62045 -4.1411,0 -7.7421,-1.62045 -3.601,-1.53043 -6.3018,-4.23118 -2.7007,-2.70076 -4.3212,-6.30176 -1.5304,-3.601 -1.5304,-7.74216 0,-2.5207 0.5401,-4.95138 0.2701,-1.0803 1.1704,-1.62045 0.9902,-0.54015 2.0705,-0.27008 1.0803,0.27008 1.6205,1.17033 0.5401,0.99028 0.2701,1.98055 -0.1801,0.99028 -0.3601,1.8005 -0.09,0.90026 -0.09,1.89053 0,2.97083 1.1704,5.58156 1.1703,2.70075 3.1508,4.6813 1.9806,1.98056 4.5913,3.15088 2.7008,1.17033 5.7616,1.17033 2.9709,0 5.5816,-1.17033 2.7007,-1.17032 4.6813,-3.15088 1.9805,-1.98055 3.1509,-4.6813 1.1703,-2.61073 1.1703,-5.58156 v -13.68381 q -2.7008,2.97082 -6.5718,4.77133 -3.7811,1.71047 -8.1023,1.71047 -4.1412,0 -7.8322,-1.53042 -3.601,-1.62046 -6.3017,-4.32121 -2.7008,-2.70075 -4.3212,-6.30176 -1.5305,-3.69102 -1.5305,-7.83218 0,-4.14115 1.5305,-7.74216 1.6204,-3.69103 4.3212,-6.39178 2.7007,-2.70075 6.3017,-4.23118 3.691,-1.62045 7.8322,-1.62045 4.3212,0 8.1023,1.8005 3.871,1.71048 6.5718,4.68131 v -3.78106 q 0,-1.0803 0.7202,-1.8005 0.8102,-0.81023 1.9805,-0.81023 z m -17.3748,34.56964 q 3.0609,0 5.6716,-1.17032 2.7007,-1.17033 4.6813,-3.15088 1.9805,-1.98055 3.1509,-4.59128 1.1703,-2.70076 1.1703,-5.76161 0,-3.06085 -1.1703,-5.67158 -1.1704,-2.70075 -3.1509,-4.68131 -1.9806,-1.98055 -4.6813,-3.15087 -2.6107,-1.17033 -5.6716,-1.17033 -3.0608,0 -5.7616,1.17033 -2.6107,1.17032 -4.5913,3.15087 -1.9805,1.98056 -3.1509,4.68131 -1.1703,2.61073 -1.1703,5.67158 0,3.06085 1.1703,5.76161 1.1704,2.61073 3.1509,4.59128 1.9806,1.98055 4.5913,3.15088 2.7008,1.17032 5.7616,1.17032 z"
           id="path608" />
        <path
           d="m 684.31617,367.38491 q 1.17033,0 1.89053,0.81023 0.81022,0.7202 0.81022,1.8005 0,1.0803 -0.81022,1.89052 -0.7202,0.72021 -1.89053,0.72021 H 665.0508 q -2.43068,0 -4.59128,-0.90026 -2.07058,-0.90025 -3.69103,-2.5207 -1.62045,-1.62045 -2.5207,-3.69103 -0.90026,-2.1606 -0.90026,-4.59128 v -46.90308 q 0,-1.0803 0.7202,-1.8005 0.81023,-0.81022 1.89053,-0.81022 h 25.20703 q 1.0803,0 1.8005,0.81022 0.81023,0.7202 0.81023,1.8005 0,1.08031 -0.81023,1.89053 -0.7202,0.7202 -1.8005,0.7202 h -22.5963 v 22.77635 h 11.61324 q 1.0803,0 1.8005,0.81023 0.81023,0.7202 0.81023,1.8005 0,1.0803 -0.81023,1.89053 -0.7202,0.7202 -1.8005,0.7202 h -11.61324 v 16.29454 q 0,2.70076 1.89053,4.59128 1.89052,1.89053 4.59128,1.89053 h 19.26537 z"
           id="path610" />
        <path
           d="m 696.01952,352.62079 q 0,-4.14115 1.53042,-7.74216 1.62045,-3.69102 4.32121,-6.39178 2.70075,-2.70075 6.30175,-4.23118 3.69103,-1.62045 7.83219,-1.62045 4.41123,0 8.19228,1.8005 3.78106,1.71048 6.48181,4.68131 v -26.73746 q 0,-1.0803 0.81023,-1.8005 0.81022,-0.81023 1.89052,-0.81023 1.0803,0 1.8005,0.81023 0.81023,0.7202 0.81023,1.8005 v 57.61607 q 0,1.0803 -0.81023,1.89052 -0.7202,0.72021 -1.8005,0.72021 -1.0803,0 -1.89052,-0.72021 -0.81023,-0.81022 -0.81023,-1.89052 v -3.87108 q -2.70075,2.97083 -6.48181,4.77133 -3.78105,1.71048 -8.19228,1.71048 -4.14116,0 -7.83219,-1.53043 -3.601,-1.62045 -6.30175,-4.32121 -2.70076,-2.70075 -4.32121,-6.30175 -1.53042,-3.69103 -1.53042,-7.83219 z m 5.31148,0 q 0,3.06086 1.17032,5.76161 1.17033,2.61073 3.15088,4.59128 1.98055,1.98055 4.59128,3.15088 2.70075,1.17032 5.76161,1.17032 3.06085,0 5.67158,-1.17032 2.70075,-1.17033 4.6813,-3.15088 1.98056,-1.98055 3.15088,-4.59128 1.17033,-2.70075 1.17033,-5.76161 0,-3.06085 -1.17033,-5.67158 -1.17032,-2.70075 -3.15088,-4.6813 -1.98055,-1.98056 -4.6813,-3.15088 -2.61073,-1.17033 -5.67158,-1.17033 -3.06086,0 -5.76161,1.17033 -2.61073,1.17032 -4.59128,3.15088 -1.98055,1.98055 -3.15088,4.6813 -1.17032,2.61073 -1.17032,5.67158 z"
           id="path612" />
        <path
           d="m 776.68193,332.63522 q 1.0803,0 1.8005,0.81023 0.81023,0.7202 0.81023,1.89052 v 34.56964 q 0,1.0803 -0.81023,1.89053 -0.7202,0.7202 -1.8005,0.7202 -1.0803,0 -1.89053,-0.7202 -0.81023,-0.81023 -0.81023,-1.89053 v -1.62045 q -2.1606,2.07058 -4.95138,3.2409 -2.79077,1.08031 -5.94165,1.08031 -3.42096,0 -6.39178,-1.26036 -2.88081,-1.26035 -5.13144,-3.51098 -2.25062,-2.25062 -3.51097,-5.13143 -1.26036,-2.97082 -1.26036,-6.39178 v -20.97585 q 0,-1.0803 0.72021,-1.8005 0.81022,-0.81022 1.89052,-0.81022 1.17033,0 1.89053,0.81022 0.81023,0.7202 0.81023,1.8005 v 20.97585 q 0,2.34065 0.81022,4.32121 0.90025,1.98055 2.34065,3.51098 1.53043,1.4404 3.51098,2.34065 2.07058,0.81022 4.32121,0.81022 2.25063,0 4.23118,-0.81022 1.98055,-0.90025 3.42095,-2.34065 1.53043,-1.53043 2.34065,-3.51098 0.90025,-1.98056 0.90025,-4.32121 v -20.97585 q 0,-1.17032 0.81023,-1.89052 0.81023,-0.81023 1.89053,-0.81023 z"
           id="path614" />
        <path
           d="m 808.28078,372.60637 q -4.14115,0 -7.83218,-1.53043 -3.601,-1.62045 -6.30176,-4.32121 -2.70075,-2.70075 -4.3212,-6.30175 -1.53043,-3.69103 -1.53043,-7.83219 0,-4.14115 1.53043,-7.74216 1.62045,-3.69102 4.3212,-6.39178 2.70076,-2.70075 6.30176,-4.23118 3.69103,-1.62045 7.83218,-1.62045 4.32121,0 8.10226,1.71048 3.87108,1.71047 6.75189,4.86135 0.7202,0.81023 0.63017,1.98056 0,1.0803 -0.90025,1.8005 -0.81023,0.7202 -1.89053,0.7202 -1.0803,-0.09 -1.8005,-0.90025 -2.07058,-2.34066 -4.95138,-3.60101 -2.79078,-1.26035 -5.94166,-1.26035 -3.06085,0 -5.7616,1.17033 -2.61073,1.17032 -4.59128,3.15088 -1.98055,1.98055 -3.15088,4.6813 -1.17033,2.61073 -1.17033,5.67158 0,3.06086 1.17033,5.76161 1.17033,2.61073 3.15088,4.59128 1.98055,1.98055 4.59128,3.15088 2.70075,1.17032 5.7616,1.17032 1.08031,0 1.80051,0.81023 0.81022,0.7202 0.81022,1.89053 0,1.0803 -0.81022,1.89052 -0.7202,0.72021 -1.80051,0.72021 z"
           id="path616" />
        <path
           d="m 867.42732,332.72525 q 1.17032,0 1.89052,0.81022 0.81023,0.7202 0.81023,1.8005 v 34.65967 q 0,1.0803 -0.81023,1.89052 -0.7202,0.72021 -1.89052,0.72021 -1.0803,0 -1.89053,-0.72021 -0.7202,-0.81022 -0.7202,-1.89052 v -3.87108 q -2.79078,2.97083 -6.57183,4.77133 -3.78106,1.71048 -8.10226,1.71048 -4.14116,0 -7.83219,-1.53043 -3.601,-1.62045 -6.30175,-4.32121 -2.70076,-2.70075 -4.23118,-6.30175 -1.62045,-3.69103 -1.62045,-7.83219 0,-4.14115 1.62045,-7.74216 1.53042,-3.69102 4.23118,-6.39178 2.70075,-2.70075 6.30175,-4.23118 3.69103,-1.62045 7.83219,-1.62045 4.3212,0 8.10226,1.8005 3.78105,1.71048 6.57183,4.68131 v -3.78106 q 0,-1.0803 0.7202,-1.8005 0.81023,-0.81022 1.89053,-0.81022 z m -17.28482,34.56963 q 3.06085,0 5.67158,-1.17032 2.70075,-1.17033 4.6813,-3.15088 1.98056,-1.98055 3.15088,-4.59128 1.17033,-2.70075 1.17033,-5.76161 0,-3.06085 -1.17033,-5.67158 -1.17032,-2.70075 -3.15088,-4.6813 -1.98055,-1.98056 -4.6813,-3.15088 -2.61073,-1.17033 -5.67158,-1.17033 -3.06086,0 -5.76161,1.17033 -2.61073,1.17032 -4.59128,3.15088 -1.98055,1.98055 -3.15088,4.6813 -1.17032,2.61073 -1.17032,5.67158 0,3.06086 1.17032,5.76161 1.17033,2.61073 3.15088,4.59128 1.98055,1.98055 4.59128,3.15088 2.70075,1.17032 5.76161,1.17032 z"
           id="path618" />
        <path
           d="m 895.42514,332.63522 q 1.17033,0 1.89053,0.81023 0.81023,0.7202 0.81023,1.89052 0,1.0803 -0.81023,1.89053 -0.7202,0.7202 -1.89053,0.7202 h -6.39178 v 25.83721 q 0,1.4404 0.99028,2.5207 0.99027,0.99027 2.5207,0.99027 1.0803,0 1.89053,0.81023 0.81022,0.7202 0.81022,1.89053 0,1.0803 -0.81022,1.89052 -0.81023,0.72021 -1.89053,0.72021 -3.69103,0 -6.30176,-2.52071 -2.5207,-2.61073 -2.5207,-6.30175 V 337.9467 h -1.89053 q -1.17032,0 -1.98055,-0.7202 -0.7202,-0.81023 -0.7202,-1.89053 0,-1.17032 0.7202,-1.89052 0.81023,-0.81023 1.98055,-0.81023 h 1.89053 v -9.36261 q 0,-1.0803 0.7202,-1.8005 0.81023,-0.81023 1.89053,-0.81023 1.0803,0 1.89053,0.81023 0.81022,0.7202 0.81022,1.8005 v 9.36261 h 6.39178 z"
           id="path620" />
        <path
           d="m 909.82921,332.63522 q 0.99028,0 1.71048,0.81023 0.7202,0.7202 0.7202,1.71047 v 34.92974 q 0,1.0803 -0.7202,1.8005 -0.7202,0.72021 -1.71048,0.72021 -1.0803,0 -1.8005,-0.72021 -0.7202,-0.7202 -0.7202,-1.8005 v -34.92974 q 0,-0.99027 0.7202,-1.71047 0.7202,-0.81023 1.8005,-0.81023 z m 0,-17.91499 q 1.53043,0 2.61073,1.0803 1.0803,1.0803 1.0803,2.61072 0,1.53043 -1.0803,2.61073 -1.0803,0.99028 -2.61073,0.99028 -1.53042,0 -2.61072,-0.99028 -0.99028,-1.0803 -0.99028,-2.61073 0,-1.53042 0.99028,-2.61072 1.0803,-1.0803 2.61072,-1.0803 z"
           id="path622" />
        <path
           d="m 947.90977,372.60637 q -4.14116,0 -7.83219,-1.53043 -3.601,-1.62045 -6.30175,-4.32121 -2.70076,-2.70075 -4.32121,-6.30175 -1.53043,-3.69103 -1.53043,-7.83219 0,-4.14115 1.53043,-7.74216 1.62045,-3.69102 4.32121,-6.39178 2.70075,-2.70075 6.30175,-4.23118 3.69103,-1.62045 7.83219,-1.62045 4.14115,0 7.74216,1.62045 3.69102,1.53043 6.39178,4.23118 2.70075,2.70076 4.23118,6.39178 1.62045,3.60101 1.62045,7.74216 0,4.14116 -1.62045,7.83219 -1.53043,3.601 -4.23118,6.30175 -2.70076,2.70076 -6.39178,4.32121 -3.60101,1.53043 -7.74216,1.53043 z m 0,-34.65967 q -3.06086,0 -5.76161,1.17033 -2.61073,1.17032 -4.59128,3.15088 -1.98055,1.98055 -3.15088,4.6813 -1.17032,2.61073 -1.17032,5.67158 0,3.06086 1.17032,5.76161 1.17033,2.61073 3.15088,4.59128 1.98055,1.98055 4.59128,3.15088 2.70075,1.17032 5.76161,1.17032 3.06085,0 5.67158,-1.17032 2.70075,-1.17033 4.6813,-3.15088 1.98056,-1.98055 3.15088,-4.59128 1.17033,-2.70075 1.17033,-5.76161 0,-3.06085 -1.17033,-5.67158 -1.17032,-2.70075 -3.15088,-4.6813 -1.98055,-1.98056 -4.6813,-3.15088 -2.61073,-1.17033 -5.67158,-1.17033 z"
           id="path624" />
        <path
           d="m 991.93209,332.63522 q 3.33092,0 6.30175,1.26035 2.97086,1.26035 5.13146,3.51098 2.2506,2.25063 3.511,5.22146 1.2603,2.97082 1.2603,6.30175 v 20.97585 q 0,1.0803 -0.8102,1.89053 -0.7202,0.7202 -1.8005,0.7202 -1.0803,0 -1.8906,-0.7202 -0.8102,-0.81023 -0.8102,-1.89053 v -20.97585 q 0,-2.25062 -0.9002,-4.23118 -0.8103,-2.07057 -2.34068,-3.51097 -1.4404,-1.53043 -3.42095,-2.34066 -1.98056,-0.90025 -4.23118,-0.90025 -2.25063,0 -4.32121,0.90025 -1.98055,0.81023 -3.51098,2.34066 -1.4404,1.4404 -2.34065,3.51097 -0.81023,1.98056 -0.81023,4.23118 v 21.06588 q 0,1.0803 -0.81022,1.89052 -0.7202,0.72021 -1.89053,0.72021 -1.0803,0 -1.89053,-0.72021 -0.7202,-0.81022 -0.7202,-1.89052 v -34.65967 q 0,-1.0803 0.7202,-1.8005 0.81023,-0.81022 1.89053,-0.81022 1.17033,0 1.89053,0.81022 0.81022,0.7202 0.81022,1.8005 v 1.62046 q 2.16061,-2.07058 4.95138,-3.15088 2.88081,-1.17033 6.03169,-1.17033 z"
           id="path626" />
        <path
           d="m 1102.843,368.91534 q 0.4501,0.99027 0,2.07057 -0.3601,0.99028 -1.3504,1.44041 -0.5401,0.18005 -0.9903,0.18005 -1.7104,0 -2.4306,-1.53043 l -9.0026,-20.0756 h -27.1875 l -8.9125,20.0756 q -0.4501,0.99027 -1.5304,1.4404 -0.9903,0.3601 -1.9806,-0.09 -0.9903,-0.45013 -1.4404,-1.44041 -0.3601,-1.0803 0.09,-2.07057 l 25.027,-55.99562 q 0.6302,-1.53042 2.3407,-1.53042 1.6204,0 2.4306,1.53042 z m -16.1145,-23.22648 -11.2531,-25.20703 -11.2532,25.20703 z"
           id="path628" />
        <path
           d="m 1128.7703,332.63522 q 4.1411,0 7.7421,1.62045 3.6911,1.53043 6.3918,4.23118 2.7008,2.70076 4.2312,6.39178 1.6204,3.60101 1.6204,7.74216 0,4.14116 -1.6204,7.83219 -1.5304,3.601 -4.2312,6.30175 -2.7007,2.70076 -6.3918,4.32121 -3.601,1.53043 -7.7421,1.53043 -4.3212,0 -8.1023,-1.71048 -3.781,-1.71048 -6.5718,-4.68131 v 27.27761 q 0,1.0803 -0.8102,1.8005 -0.7202,0.81023 -1.8906,0.81023 -1.0803,0 -1.8905,-0.81023 -0.7202,-0.7202 -0.7202,-1.8005 v -58.15622 q 0,-1.17032 0.7202,-1.89052 0.8102,-0.81023 1.8905,-0.81023 1.1704,0 1.8906,0.81023 0.8102,0.7202 0.8102,1.89052 v 3.78106 q 2.7908,-2.97083 6.5718,-4.68131 3.7811,-1.8005 8.1023,-1.8005 z m 0,34.65966 q 3.0608,0 5.6716,-1.17032 2.7007,-1.17033 4.6813,-3.15088 1.9805,-1.98055 3.1508,-4.59128 1.1704,-2.70075 1.1704,-5.76161 0,-3.06085 -1.1704,-5.67158 -1.1703,-2.70075 -3.1508,-4.6813 -1.9806,-1.98056 -4.6813,-3.15088 -2.6108,-1.17033 -5.6716,-1.17033 -3.0609,0 -5.7616,1.17033 -2.6108,1.17032 -4.5913,3.15088 -1.9806,1.98055 -3.1509,4.6813 -1.1703,2.61073 -1.1703,5.67158 0,3.06086 1.1703,5.76161 1.1703,2.61073 3.1509,4.59128 1.9805,1.98055 4.5913,3.15088 2.7007,1.17032 5.7616,1.17032 z"
           id="path630" />
        <path
           d="m 1176.8437,332.63522 q 4.1412,0 7.7422,1.62045 3.691,1.53043 6.3917,4.23118 2.7008,2.70076 4.2312,6.39178 1.6205,3.60101 1.6205,7.74216 0,4.14116 -1.6205,7.83219 -1.5304,3.601 -4.2312,6.30175 -2.7007,2.70076 -6.3917,4.32121 -3.601,1.53043 -7.7422,1.53043 -4.3212,0 -8.1023,-1.71048 -3.781,-1.71048 -6.5718,-4.68131 v 27.27761 q 0,1.0803 -0.8102,1.8005 -0.7202,0.81023 -1.8905,0.81023 -1.0803,0 -1.8906,-0.81023 -0.7202,-0.7202 -0.7202,-1.8005 v -58.15622 q 0,-1.17032 0.7202,-1.89052 0.8103,-0.81023 1.8906,-0.81023 1.1703,0 1.8905,0.81023 0.8102,0.7202 0.8102,1.89052 v 3.78106 q 2.7908,-2.97083 6.5718,-4.68131 3.7811,-1.8005 8.1023,-1.8005 z m 0,34.65966 q 3.0608,0 5.6716,-1.17032 2.7007,-1.17033 4.6813,-3.15088 1.9805,-1.98055 3.1509,-4.59128 1.1703,-2.70075 1.1703,-5.76161 0,-3.06085 -1.1703,-5.67158 -1.1704,-2.70075 -3.1509,-4.6813 -1.9806,-1.98056 -4.6813,-3.15088 -2.6108,-1.17033 -5.6716,-1.17033 -3.0609,0 -5.7616,1.17033 -2.6107,1.17032 -4.5913,3.15088 -1.9805,1.98055 -3.1509,4.6813 -1.1703,2.61073 -1.1703,5.67158 0,3.06086 1.1703,5.76161 1.1704,2.61073 3.1509,4.59128 1.9806,1.98055 4.5913,3.15088 2.7007,1.17032 5.7616,1.17032 z"
           id="path632" />
      </g>
      <g
         aria-label="&amp;"
         id="text6-5-3"
         style="font-weight:bold;font-size:88.2652px;font-family:Break;-inkscape-font-specification:'Break, Bold';dominant-baseline:middle;display:inline;fill:#70e0d0;stroke-width:1.61886"
         class="custom">
        <path
           d="m 1259.8615,308.91172 q -0.1765,0.0883 -0.2647,0.0883 -0.088,0 -0.2648,0.0883 l -0.7062,0.17653 q 1.2357,2.20663 1.9419,4.76633 0.7061,2.47142 0.7061,5.11938 0,4.14846 -1.5888,7.76733 -1.5005,3.53061 -4.2367,6.26683 -2.7362,2.73622 -6.3551,4.325 -3.6189,1.50051 -7.7673,1.50051 -4.1485,0 -7.7674,-1.50051 -3.5306,-1.58878 -6.2668,-4.325 -2.7362,-2.73622 -4.325,-6.26683 -1.5005,-3.61887 -1.5005,-7.76733 0,-5.03112 2.2949,-9.35611 2.2949,-4.325 6.4433,-7.14948 l 6.6199,-4.41326 q -2.5597,-1.23572 -4.1484,-3.61888 -1.5005,-2.47142 -1.5005,-5.47244 0,-2.11836 0.7943,-3.88367 0.7944,-1.85357 2.2067,-3.26581 1.4122,-1.41224 3.1775,-2.20663 1.8536,-0.79439 3.972,-0.79439 2.1183,0 3.9719,0.79439 1.8536,0.79439 3.2658,2.20663 1.4122,1.41224 2.2066,3.26581 0.7944,1.76531 0.7944,3.88367 0,2.64796 -1.2357,4.85459 -1.2357,2.20663 -3.2658,3.61887 h -0.088 l -13.8576,9.26784 q -3.0893,2.0301 -4.8546,5.29592 -1.677,3.26581 -1.677,6.97295 0,3.08928 1.1474,5.73723 1.1475,2.64796 3.1776,4.67806 2.0301,2.0301 4.678,3.17755 2.648,1.14745 5.7373,1.14745 3.0892,0 5.7372,-1.14745 2.7362,-1.14745 4.7663,-3.17755 2.0301,-2.0301 3.1776,-4.67806 1.1474,-2.64795 1.1474,-5.73723 0,-4.85459 -2.9127,-8.73826 l -1.6771,0.35306 q -0.8826,0.0883 -1.324,0.88266 -0.5296,0.70612 -0.353,1.58877 0.2648,1.05918 -0.3531,2.0301 -0.5296,0.88265 -1.5888,1.05918 -0.1765,0 -0.2647,0.0883 -0.088,0 -0.2648,0 -0.971,0 -1.6771,-0.5296 -0.7061,-0.61785 -0.8826,-1.5005 -0.5296,-3.08929 1.0591,-5.47245 1.6771,-2.64795 4.5016,-3.17754 l 7.8556,-1.67704 q 0.8826,-0.17653 1.324,-0.88265 0.4413,-0.79439 0.2647,-1.67704 -0.1765,-0.97092 0.3531,-1.85357 0.6179,-0.97092 1.677,-1.14745 1.0592,-0.26479 1.9419,0.35306 0.8826,0.52959 1.0592,1.58878 0.7061,2.82448 -0.7944,5.29591 -1.5005,2.38316 -4.2368,3.17754 z m -18.5356,-24.80252 q -2.0301,0 -3.5307,1.50051 -1.4122,1.50051 -1.4122,3.53061 0,2.11836 1.4122,3.61887 1.5006,1.41225 3.5307,1.41225 2.1183,0 3.5306,-1.41225 1.5005,-1.50051 1.5005,-3.61887 0,-2.0301 -1.5005,-3.53061 -1.4123,-1.50051 -3.5306,-1.50051 z"
           id="path635" />
      </g>
    </g>
    <g
       id="g3975"
       transform="matrix(0.26458333,0,0,0.26458333,-4.0496101,1.03e-6)">
      <rect
         style="opacity:0.536223;fill:#ffffff;fill-opacity:0.154801;stroke-width:1.50687;stroke-linecap:round;stroke-linejoin:round;paint-order:stroke fill markers"
         id="rect510"
         width="102.9989"
         height="102.9989"
         x="103.0022"
         y="-1694.4678"
         transform="rotate(90)" />
      <rect
         style="opacity:0.536223;fill:#ffffff;fill-opacity:0.154801;stroke-width:1.50687;stroke-linecap:round;stroke-linejoin:round;paint-order:stroke fill markers"
         id="rect510-0"
         width="102.9989"
         height="102.9989"
         x="0.0032958984"
         y="-1591.4689"
         transform="rotate(90)" />
      <rect
         style="opacity:0.536223;fill:#ffffff;fill-opacity:0.154801;stroke-width:1.50687;stroke-linecap:round;stroke-linejoin:round;paint-order:stroke fill markers"
         id="rect510-0-9"
         width="102.9989"
         height="102.9989"
         x="103.0022"
         y="-1488.47"
         transform="rotate(90)" />
      <rect
         style="opacity:0.536223;fill:#ffffff;fill-opacity:0.154801;stroke-width:1.50687;stroke-linecap:round;stroke-linejoin:round;paint-order:stroke fill markers"
         id="rect510-0-9-6"
         width="102.9989"
         height="102.9989"
         x="206.0011"
         y="-1385.4711"
         transform="rotate(90)" />
      <rect
         style="opacity:0.536223;fill:#ffffff;fill-opacity:0.154801;stroke-width:1.50687;stroke-linecap:round;stroke-linejoin:round;paint-order:stroke fill markers"
         id="rect510-0-9-3"
         width="102.9989"
         height="102.9989"
         x="0.0032958984"
         y="-1385.4711"
         transform="rotate(90)" />
      <rect
         style="opacity:0.536223;fill:#ffffff;fill-opacity:0.154801;stroke-width:1.50687;stroke-linecap:round;stroke-linejoin:round;paint-order:stroke fill markers"
         id="rect510-7"
         width="102.9989"
         height="102.9989"
         x="206.0011"
         y="-1591.4689"
         transform="rotate(90)" />
      <rect
         style="opacity:0.536223;fill:#ffffff;fill-opacity:0.154801;stroke-width:1.50687;stroke-linecap:round;stroke-linejoin:round;paint-order:stroke fill markers"
         id="rect510-2"
         width="102.9989"
         height="102.9989"
         x="309"
         y="-1694.4678"
         transform="rotate(90)" />
      <rect
         style="opacity:0.536223;fill:#ffffff;fill-opacity:0.154801;stroke-width:1.50687;stroke-linecap:round;stroke-linejoin:round;paint-order:stroke fill markers"
         id="rect510-0-9-2"
         width="102.9989"
         height="102.9989"
         x="309"
         y="-1488.47"
         transform="rotate(90)" />
      <rect
         style="opacity:0.536223;fill:#ffffff;fill-opacity:0.154801;stroke-width:1.50687;stroke-linecap:round;stroke-linejoin:round;paint-order:stroke fill markers"
         id="rect510-0-9-6-3"
         width="102.9989"
         height="102.9989"
         x="411.9989"
         y="-1385.4711"
         transform="rotate(90)" />
      <rect
         style="opacity:0.536223;fill:#ffffff;fill-opacity:0.154801;stroke-width:1.50687;stroke-linecap:round;stroke-linejoin:round;paint-order:stroke fill markers"
         id="rect510-0-9-6-3-9"
         width="102.9989"
         height="102.9989"
         x="514.9978"
         y="-1488.47"
         transform="rotate(90)" />
      <rect
         style="opacity:0.536223;fill:#ffffff;fill-opacity:0.154801;stroke-width:1.50687;stroke-linecap:round;stroke-linejoin:round;paint-order:stroke fill markers"
         id="rect510-0-9-6-3-9-2"
         width="102.9989"
         height="102.9989"
         x="514.9978"
         y="-1694.4678"
         transform="rotate(90)" />
      <rect
         style="opacity:0.536223;fill:#ffffff;fill-opacity:0.154801;stroke-width:1.50687;stroke-linecap:round;stroke-linejoin:round;paint-order:stroke fill markers"
         id="rect510-7-5"
         width="102.9989"
         height="102.9989"
         x="411.9989"
         y="-1591.4689"
         transform="rotate(90)" />
    </g>
  </g>
</svg>
