<?xml version="1.0" encoding="UTF-8" standalone="no"?>
<!-- Created with Inkscape (http://www.inkscape.org/) -->

<svg
   width="3647"
   height="784"
   viewBox="0 0 964.93539 207.43333"
   version="1.1"
   id="svg145"
   xmlns="http://www.w3.org/2000/svg"
   xmlns:svg="http://www.w3.org/2000/svg">
  <defs
     id="defs142" />
  <g
     id="layer1">
    <rect
       style="fill:#00535c;fill-opacity:1;stroke-width:0.499999;stroke-linecap:round;stroke-linejoin:round;paint-order:stroke fill markers"
       id="rect422"
       width="964.93542"
       height="207.43333"
       x="-4.0690106e-06"
       y="-5.0862633e-07" />
    <g
       id="lettering-2"
       transform="matrix(0.79101256,0,0,0.79101256,-49.436321,-140.70621)">
      <g
         aria-label="OLEA"
         id="text6-9"
         style="font-weight:bold;font-size:221.63px;font-family:Break;-inkscape-font-specification:'Break, Bold';dominant-baseline:middle;text-anchor:middle;fill:#70e0d0;stroke-width:1.10814"
         class="custom">
        <path
           d="m 155.10431,221.89809 q 15.5141,0 29.25516,5.98401 13.74106,5.98401 23.93604,16.17899 10.19498,10.19498 16.17899,23.93604 5.98401,13.74106 5.98401,29.25516 0,15.73573 -5.98401,29.47679 -5.98401,13.51943 -16.17899,23.93604 -10.19498,10.19498 -23.93604,16.17899 -13.74106,5.76238 -29.25516,5.76238 -15.73573,0 -29.47679,-5.76238 -13.51943,-5.98401 -23.93604,-16.17899 -10.19498,-10.41661 -16.17899,-23.93604 -5.76238,-13.74106 -5.76238,-29.47679 0,-9.75172 2.43793,-18.83855 2.43793,-9.30846 6.87053,-17.7304 1.32978,-2.43793 3.76771,-3.10282 2.65956,-0.66489 5.09749,0.66489 2.43793,1.32978 3.10282,3.98934 0.66489,2.43793 -0.66489,4.87586 -7.75705,13.74106 -7.75705,30.14168 0,12.85454 4.87586,24.3793 5.09749,11.30313 13.51943,19.72507 8.42194,8.42194 19.72507,13.51943 11.52476,4.87586 24.3793,4.87586 12.85454,0 24.15767,-4.87586 11.52476,-5.09749 19.9467,-13.51943 8.42194,-8.42194 13.2978,-19.72507 5.09749,-11.52476 5.09749,-24.3793 0,-12.85454 -5.09749,-24.15767 -4.87586,-11.52476 -13.2978,-19.9467 -8.42194,-8.42194 -19.9467,-13.2978 -11.30313,-5.09749 -24.15767,-5.09749 -16.17899,0 -30.36331,7.75705 -2.43793,1.32978 -4.87586,0.66489 -2.43793,-0.66489 -3.76771,-3.10282 -1.32978,-2.43793 -0.66489,-4.87586 0.66489,-2.65956 3.10282,-3.76771 17.06551,-9.53009 36.56895,-9.53009 z"
           id="path535" />
        <path
           d="m 256.83259,319.41529 q -2.65956,0 -4.65423,-1.77304 -1.77304,-1.99467 -1.77304,-4.65423 v -84.66266 q 0,-2.65956 1.77304,-4.4326 1.99467,-1.99467 4.65423,-1.99467 2.65956,0 4.4326,1.99467 1.99467,1.77304 1.99467,4.4326 v 84.66266 q 0,2.65956 -1.99467,4.65423 -1.77304,1.77304 -4.4326,1.77304 z m 78.45702,40.33666 q 2.65956,0 4.4326,1.99467 1.99467,1.77304 1.99467,4.4326 0,2.65956 -1.99467,4.65423 -1.77304,1.77304 -4.4326,1.77304 h -54.96424 q -6.20564,0 -11.74639,-2.2163 -5.31912,-2.43793 -9.53009,-6.42727 -3.98934,-4.21097 -6.42727,-9.53009 -2.2163,-5.54075 -2.2163,-11.74639 0,-2.65956 1.77304,-4.4326 1.99467,-1.99467 4.65423,-1.99467 2.65956,0 4.4326,1.99467 1.99467,1.77304 1.99467,4.4326 0,7.09216 4.87586,12.18965 5.09749,4.87586 12.18965,4.87586 z"
           id="path537" />
        <path
           d="m 440.12041,359.75195 q 2.88119,0 4.65423,1.99467 1.99467,1.77304 1.99467,4.4326 0,2.65956 -1.99467,4.65423 -1.77304,1.77304 -4.65423,1.77304 h -47.65045 -0.44326 q -5.76238,-0.22163 -10.85987,-2.43793 -4.87586,-2.2163 -8.64357,-5.76238 -3.76771,-3.76771 -6.20564,-8.64357 -2.2163,-4.87586 -2.43793,-10.63824 v -0.66489 -86.4357 -1.99467 q 0,-2.65956 1.77304,-4.4326 1.99467,-1.99467 4.65423,-1.99467 2.65956,0 4.4326,1.99467 1.99467,1.77304 1.99467,4.4326 v 1.99467 32.80124 h 28.59027 q 2.65956,0 4.4326,1.99467 1.99467,1.77304 1.99467,4.4326 0,2.65956 -1.99467,4.65423 -1.77304,1.77304 -4.4326,1.77304 h -28.59027 v 40.11503 q 0,6.6489 4.65423,11.30313 4.65423,4.65423 11.30313,4.65423 z M 370.30696,234.75263 q -2.65956,0 -4.65423,-1.77304 -1.77304,-1.99467 -1.77304,-4.65423 0,-2.65956 1.77304,-4.4326 1.99467,-1.99467 4.65423,-1.99467 h 62.0564 q 2.65956,0 4.4326,1.99467 1.99467,1.77304 1.99467,4.4326 0,2.65956 -1.99467,4.65423 -1.77304,1.77304 -4.4326,1.77304 z"
           id="path539" />
        <path
           d="m 604.34845,363.51966 q 1.10815,2.43793 0,5.09749 -0.88652,2.43793 -3.32445,3.54608 -1.77304,0.44326 -2.65956,0.44326 -4.21097,0 -5.98401,-3.76771 l -55.4075,-124.77769 -27.92539,62.27803 h 31.47147 q 2.88119,0 4.65423,1.99467 1.99467,1.77304 1.99467,4.4326 0,2.65956 -1.99467,4.65423 -1.77304,1.99467 -4.65423,1.99467 h -37.23385 l -21.94137,49.42349 q -1.77304,3.76771 -5.98401,3.76771 -0.88652,0 -2.65956,-0.44326 -2.43793,-1.10815 -3.54608,-3.54608 -0.88652,-2.65956 0.22163,-5.09749 l 23.71441,-53.1912 37.89873,-84.66266 q 1.32978,-3.32445 5.54076,-3.76771 h 0.66489 q 3.98934,0.44326 5.76238,3.76771 l 61.39151,137.85386 z"
           id="path541" />
      </g>
      <g
         aria-label="Open LearningEducation App"
         id="text6-5-1"
         style="font-weight:bold;font-size:90.0251px;font-family:'Break Fill';-inkscape-font-specification:'Break Fill, Bold';dominant-baseline:middle;display:inline;fill:#70e0d0;stroke-width:1.65111"
         class="custom">
        <path
           d="m 685.75657,283.11414 q -6.39178,0 -11.97334,-2.34065 -5.49153,-2.43068 -9.72271,-6.57183 -4.14115,-4.23118 -6.57183,-9.72271 -2.34065,-5.58156 -2.34065,-11.97334 0,-6.30176 2.34065,-11.88331 2.43068,-5.58156 6.57183,-9.72272 4.23118,-4.14115 9.72271,-6.57183 5.58156,-2.43068 11.97334,-2.43068 6.30176,0 11.88331,2.43068 5.58156,2.43068 9.72271,6.57183 4.14116,4.14116 6.57184,9.72272 2.43067,5.58155 2.43067,11.88331 0,6.39178 -2.43067,11.97334 -2.43068,5.49153 -6.57184,9.72271 -4.14115,4.14115 -9.72271,6.57183 -5.58155,2.34065 -11.88331,2.34065 z m 0,-55.99561 q -5.22146,0 -9.90276,2.07058 -4.59128,1.98055 -8.01223,5.4015 -3.42096,3.42096 -5.49154,8.10226 -1.98055,4.59128 -1.98055,9.81274 0,5.22145 1.98055,9.90276 2.07058,4.59128 5.49154,8.01223 3.42095,3.42096 8.01223,5.49154 4.6813,1.98055 9.90276,1.98055 5.22146,0 9.81274,-1.98055 4.6813,-2.07058 8.10226,-5.49154 3.42095,-3.42095 5.4015,-8.01223 2.07058,-4.68131 2.07058,-9.90276 0,-5.22146 -2.07058,-9.81274 -1.98055,-4.6813 -5.4015,-8.10226 -3.42096,-3.42095 -8.10226,-5.4015 -4.59128,-2.07058 -9.81274,-2.07058 z"
           id="path544" />
        <path
           d="m 746.25339,243.143 q 4.14115,0 7.74216,1.62045 3.69102,1.53043 6.39178,4.23118 2.70075,2.70075 4.23118,6.39178 1.62045,3.60101 1.62045,7.74216 0,4.14116 -1.62045,7.83218 -1.53043,3.60101 -4.23118,6.30176 -2.70076,2.70075 -6.39178,4.32121 -3.60101,1.53042 -7.74216,1.53042 -4.32121,0 -8.10226,-1.71047 -3.78106,-1.71048 -6.57183,-4.68131 v 27.27761 q 0,1.0803 -0.81023,1.8005 -0.7202,0.81022 -1.89053,0.81022 -1.0803,0 -1.89052,-0.81022 -0.72021,-0.7202 -0.72021,-1.8005 v -58.15622 q 0,-1.17032 0.72021,-1.89053 0.81022,-0.81022 1.89052,-0.81022 1.17033,0 1.89053,0.81022 0.81023,0.72021 0.81023,1.89053 v 3.78106 q 2.79077,-2.97083 6.57183,-4.68131 3.78105,-1.8005 8.10226,-1.8005 z m 0,34.65966 q 3.06085,0 5.67158,-1.17032 2.70075,-1.17033 4.6813,-3.15088 1.98056,-1.98055 3.15088,-4.59128 1.17033,-2.70076 1.17033,-5.76161 0,-3.06085 -1.17033,-5.67158 -1.17032,-2.70075 -3.15088,-4.68131 -1.98055,-1.98055 -4.6813,-3.15087 -2.61073,-1.17033 -5.67158,-1.17033 -3.06086,0 -5.76161,1.17033 -2.61073,1.17032 -4.59128,3.15087 -1.98055,1.98056 -3.15088,4.68131 -1.17032,2.61073 -1.17032,5.67158 0,3.06085 1.17032,5.76161 1.17033,2.61073 3.15088,4.59128 1.98055,1.98055 4.59128,3.15088 2.70075,1.17032 5.76161,1.17032 z"
           id="path546" />
        <path
           d="m 794.32683,283.11414 q -4.14116,0 -7.83219,-1.53042 -3.601,-1.62046 -6.30175,-4.32121 -2.70076,-2.70075 -4.32121,-6.30176 -1.53042,-3.69102 -1.53042,-7.83218 0,-4.14115 1.53042,-7.74216 1.62045,-3.69103 4.32121,-6.39178 2.70075,-2.70075 6.30175,-4.23118 3.69103,-1.62045 7.83219,-1.62045 3.69103,0 7.02196,1.26035 3.33092,1.26035 5.94165,3.51098 2.61073,2.1606 4.41123,5.31148 1.8005,3.06085 2.34065,6.66186 0.18005,1.35037 -0.63017,2.1606 -0.7202,0.99028 -1.98055,0.99028 h -31.77886 v 0.09 q 0,3.06085 1.17032,5.76161 1.17033,2.61073 3.15088,4.59128 1.98055,1.98055 4.59128,3.15088 2.70075,1.17032 5.76161,1.17032 3.42095,0 6.4818,-1.53042 3.15088,-1.53043 5.22146,-4.32121 0.45013,-0.63017 0.81023,-1.35038 0.45012,-0.7202 0.81022,-1.4404 0.45013,-0.99027 1.4404,-1.35037 1.08031,-0.3601 2.07058,0.09 0.99028,0.45013 1.35038,1.53043 0.45012,0.99027 0,1.98055 -0.99028,2.1606 -2.25063,3.78105 -2.8808,3.78106 -7.02196,5.85164 -4.14115,2.07057 -8.91248,2.07057 z m -13.59379,-25.4771 h 27.18758 q -1.62045,-4.05113 -5.31148,-6.57183 -3.69103,-2.61073 -8.28231,-2.61073 -4.68131,0 -8.37234,2.61073 -3.601,2.5207 -5.22145,6.57183 z"
           id="path548" />
        <path
           d="m 838.52912,243.143 q 3.33093,0 6.30175,1.26035 2.97083,1.26035 5.13143,3.51098 2.25063,2.25063 3.51098,5.22145 1.26035,2.97083 1.26035,6.30176 v 20.97585 q 0,1.0803 -0.81022,1.89053 -0.7202,0.7202 -1.8005,0.7202 -1.0803,0 -1.89053,-0.7202 -0.81023,-0.81023 -0.81023,-1.89053 v -20.97585 q 0,-2.25063 -0.90025,-4.23118 -0.81022,-2.07058 -2.34065,-3.51098 -1.4404,-1.53042 -3.42095,-2.34065 -1.98056,-0.90025 -4.23118,-0.90025 -2.25063,0 -4.32121,0.90025 -1.98055,0.81023 -3.51098,2.34065 -1.4404,1.4404 -2.34065,3.51098 -0.81023,1.98055 -0.81023,4.23118 v 21.06588 q 0,1.0803 -0.81022,1.89052 -0.7202,0.7202 -1.89053,0.7202 -1.0803,0 -1.89053,-0.7202 -0.7202,-0.81022 -0.7202,-1.89052 v -34.65967 q 0,-1.0803 0.7202,-1.8005 0.81023,-0.81023 1.89053,-0.81023 1.17033,0 1.89053,0.81023 0.81022,0.7202 0.81022,1.8005 v 1.62045 q 2.16061,-2.07057 4.95138,-3.15088 2.88081,-1.17032 6.03169,-1.17032 z"
           id="path550" />
        <path
           d="m 929.0043,277.89269 q 1.0803,0 1.8005,0.81022 0.81023,0.7202 0.81023,1.80051 0,1.0803 -0.81023,1.89052 -0.7202,0.7202 -1.8005,0.7202 h -22.32622 q -2.52071,0 -4.77133,-0.90025 -2.16061,-0.99027 -3.87108,-2.61073 -1.62045,-1.71047 -2.61073,-3.87107 -0.90025,-2.25063 -0.90025,-4.77134 V 224.5078 q 0,-1.0803 0.7202,-1.8005 0.81023,-0.81023 1.89053,-0.81023 1.0803,0 1.8005,0.81023 0.81022,0.7202 0.81022,1.8005 v 46.45295 q 0,2.88081 1.98056,4.95139 2.07057,1.98055 4.95138,1.98055 h 22.32622 z"
           id="path552" />
        <path
           d="m 955.20158,283.11414 q -4.14116,0 -7.83219,-1.53042 -3.601,-1.62046 -6.30176,-4.32121 -2.70075,-2.70075 -4.3212,-6.30176 -1.53043,-3.69102 -1.53043,-7.83218 0,-4.14115 1.53043,-7.74216 1.62045,-3.69103 4.3212,-6.39178 2.70076,-2.70075 6.30176,-4.23118 3.69103,-1.62045 7.83219,-1.62045 3.69102,0 7.02195,1.26035 3.33093,1.26035 5.94166,3.51098 2.61073,2.1606 4.41123,5.31148 1.8005,3.06085 2.34065,6.66186 0.18005,1.35037 -0.63017,2.1606 -0.7202,0.99028 -1.98056,0.99028 h -31.77886 v 0.09 q 0,3.06085 1.17033,5.76161 1.17033,2.61073 3.15088,4.59128 1.98055,1.98055 4.59128,3.15088 2.70075,1.17032 5.76161,1.17032 3.42095,0 6.4818,-1.53042 3.15088,-1.53043 5.22146,-4.32121 0.45012,-0.63017 0.81022,-1.35038 0.45013,-0.7202 0.81023,-1.4404 0.45013,-0.99027 1.4404,-1.35037 1.0803,-0.3601 2.07058,0.09 0.99028,0.45013 1.35038,1.53043 0.45012,0.99027 0,1.98055 -0.99028,2.1606 -2.25063,3.78105 -2.8808,3.78106 -7.02196,5.85164 -4.14115,2.07057 -8.91248,2.07057 z m -13.59379,-25.4771 h 27.18758 q -1.62046,-4.05113 -5.31148,-6.57183 -3.69103,-2.61073 -8.28231,-2.61073 -4.68131,0 -8.37234,2.61073 -3.601,2.5207 -5.22145,6.57183 z"
           id="path554" />
        <path
           d="m 1018.5792,243.23302 q 1.1703,0 1.8905,0.81023 0.8103,0.7202 0.8103,1.8005 v 34.65967 q 0,1.0803 -0.8103,1.89052 -0.7202,0.7202 -1.8905,0.7202 -1.0803,0 -1.8905,-0.7202 -0.7202,-0.81022 -0.7202,-1.89052 v -3.87108 q -2.7908,2.97082 -6.5719,4.77133 -3.781,1.71047 -8.1022,1.71047 -4.14117,0 -7.8322,-1.53042 -3.601,-1.62046 -6.30176,-4.32121 -2.70075,-2.70075 -4.23118,-6.30176 -1.62045,-3.69102 -1.62045,-7.83218 0,-4.14115 1.62045,-7.74216 1.53043,-3.69103 4.23118,-6.39178 2.70076,-2.70075 6.30176,-4.23118 3.69103,-1.62045 7.8322,-1.62045 4.3212,0 8.1022,1.8005 3.7811,1.71048 6.5719,4.68131 v -3.78106 q 0,-1.0803 0.7202,-1.8005 0.8102,-0.81023 1.8905,-0.81023 z m -17.2848,34.56964 q 3.0608,0 5.6716,-1.17032 2.7007,-1.17033 4.6813,-3.15088 1.9805,-1.98055 3.1508,-4.59128 1.1704,-2.70076 1.1704,-5.76161 0,-3.06085 -1.1704,-5.67158 -1.1703,-2.70075 -3.1508,-4.68131 -1.9806,-1.98055 -4.6813,-3.15087 -2.6108,-1.17033 -5.6716,-1.17033 -3.06087,0 -5.76162,1.17033 -2.61073,1.17032 -4.59128,3.15087 -1.98055,1.98056 -3.15088,4.68131 -1.17033,2.61073 -1.17033,5.67158 0,3.06085 1.17033,5.76161 1.17033,2.61073 3.15088,4.59128 1.98055,1.98055 4.59128,3.15088 2.70075,1.17032 5.76162,1.17032 z"
           id="path556" />
        <path
           d="m 1050.268,243.143 q 1.0803,0 1.8005,0.81022 0.8103,0.72021 0.8103,1.80051 0,1.17032 -0.8103,1.98055 -0.7202,0.7202 -1.8005,0.7202 -3.0608,0 -5.7616,1.17033 -2.6107,1.17032 -4.5912,3.15087 -1.9806,1.98056 -3.1509,4.68131 -1.1703,2.61073 -1.1703,5.67158 v 17.28482 q 0,1.17033 -0.8103,1.98055 -0.7202,0.7202 -1.8905,0.7202 -1.0803,0 -1.8905,-0.7202 -0.7202,-0.81022 -0.7202,-1.98055 v -34.56964 q 0,-1.0803 0.7202,-1.8005 0.8102,-0.81023 1.8905,-0.81023 1.1703,0 1.8905,0.81023 0.8103,0.7202 0.8103,1.8005 v 3.78106 q 2.7907,-2.97083 6.5718,-4.68131 3.781,-1.8005 8.1022,-1.8005 z"
           id="path558" />
        <path
           d="m 1078.1758,243.143 q 3.331,0 6.3018,1.26035 2.9708,1.26035 5.1314,3.51098 2.2506,2.25063 3.511,5.22145 1.2603,2.97083 1.2603,6.30176 v 20.97585 q 0,1.0803 -0.8102,1.89053 -0.7202,0.7202 -1.8005,0.7202 -1.0803,0 -1.8905,-0.7202 -0.8102,-0.81023 -0.8102,-1.89053 v -20.97585 q 0,-2.25063 -0.9003,-4.23118 -0.8102,-2.07058 -2.3406,-3.51098 -1.4404,-1.53042 -3.421,-2.34065 -1.9805,-0.90025 -4.2312,-0.90025 -2.2506,0 -4.3212,0.90025 -1.9805,0.81023 -3.511,2.34065 -1.4404,1.4404 -2.3406,3.51098 -0.8102,1.98055 -0.8102,4.23118 v 21.06588 q 0,1.0803 -0.8103,1.89052 -0.7202,0.7202 -1.8905,0.7202 -1.0803,0 -1.8905,-0.7202 -0.7202,-0.81022 -0.7202,-1.89052 v -34.65967 q 0,-1.0803 0.7202,-1.8005 0.8102,-0.81023 1.8905,-0.81023 1.1703,0 1.8905,0.81023 0.8103,0.7202 0.8103,1.8005 v 1.62045 q 2.1606,-2.07057 4.9513,-3.15088 2.8809,-1.17032 6.0317,-1.17032 z"
           id="path560" />
        <path
           d="m 1106.2636,243.143 q 0.9902,0 1.7104,0.81022 0.7202,0.72021 0.7202,1.71048 v 34.92974 q 0,1.0803 -0.7202,1.8005 -0.7202,0.7202 -1.7104,0.7202 -1.0803,0 -1.8005,-0.7202 -0.7202,-0.7202 -0.7202,-1.8005 V 245.6637 q 0,-0.99027 0.7202,-1.71048 0.7202,-0.81022 1.8005,-0.81022 z m 0,-17.915 q 1.5304,0 2.6107,1.0803 1.0803,1.08031 1.0803,2.61073 0,1.53043 -1.0803,2.61073 -1.0803,0.99028 -2.6107,0.99028 -1.5305,0 -2.6108,-0.99028 -0.9902,-1.0803 -0.9902,-2.61073 0,-1.53042 0.9902,-2.61073 1.0803,-1.0803 2.6108,-1.0803 z"
           id="path562" />
        <path
           d="m 1140.6531,243.143 q 3.3309,0 6.3018,1.26035 2.9708,1.26035 5.1314,3.51098 2.2506,2.25063 3.511,5.22145 1.2603,2.97083 1.2603,6.30176 v 20.97585 q 0,1.0803 -0.8102,1.89053 -0.7202,0.7202 -1.8005,0.7202 -1.0803,0 -1.8905,-0.7202 -0.8103,-0.81023 -0.8103,-1.89053 v -20.97585 q 0,-2.25063 -0.9002,-4.23118 -0.8102,-2.07058 -2.3407,-3.51098 -1.4404,-1.53042 -3.4209,-2.34065 -1.9806,-0.90025 -4.2312,-0.90025 -2.2506,0 -4.3212,0.90025 -1.9806,0.81023 -3.511,2.34065 -1.4404,1.4404 -2.3406,3.51098 -0.8103,1.98055 -0.8103,4.23118 v 21.06588 q 0,1.0803 -0.8102,1.89052 -0.7202,0.7202 -1.8905,0.7202 -1.0803,0 -1.8905,-0.7202 -0.7202,-0.81022 -0.7202,-1.89052 v -34.65967 q 0,-1.0803 0.7202,-1.8005 0.8102,-0.81023 1.8905,-0.81023 1.1703,0 1.8905,0.81023 0.8102,0.7202 0.8102,1.8005 v 1.62045 q 2.1606,-2.07057 4.9514,-3.15088 2.8808,-1.17032 6.0317,-1.17032 z"
           id="path564" />
        <path
           d="m 1202.5002,243.23302 q 1.0803,0 1.8006,0.81023 0.8102,0.7202 0.8102,1.8005 v 44.4724 q 0,4.14116 -1.6205,7.74216 -1.5304,3.601 -4.2312,6.30176 -2.7007,2.70075 -6.3017,4.23118 -3.601,1.62045 -7.7422,1.62045 -4.1411,0 -7.7421,-1.62045 -3.601,-1.53043 -6.3018,-4.23118 -2.7007,-2.70076 -4.3212,-6.30176 -1.5304,-3.601 -1.5304,-7.74216 0,-2.5207 0.5401,-4.95138 0.2701,-1.0803 1.1704,-1.62045 0.9902,-0.54015 2.0705,-0.27008 1.0803,0.27008 1.6205,1.17033 0.5401,0.99028 0.2701,1.98055 -0.1801,0.99028 -0.3601,1.8005 -0.09,0.90026 -0.09,1.89053 0,2.97083 1.1704,5.58156 1.1703,2.70075 3.1508,4.6813 1.9806,1.98056 4.5913,3.15088 2.7008,1.17033 5.7616,1.17033 2.9709,0 5.5816,-1.17033 2.7007,-1.17032 4.6813,-3.15088 1.9805,-1.98055 3.1509,-4.6813 1.1703,-2.61073 1.1703,-5.58156 v -13.68381 q -2.7008,2.97082 -6.5718,4.77133 -3.7811,1.71047 -8.1023,1.71047 -4.1412,0 -7.8322,-1.53042 -3.601,-1.62046 -6.3017,-4.32121 -2.7008,-2.70075 -4.3212,-6.30176 -1.5305,-3.69102 -1.5305,-7.83218 0,-4.14115 1.5305,-7.74216 1.6204,-3.69103 4.3212,-6.39178 2.7007,-2.70075 6.3017,-4.23118 3.691,-1.62045 7.8322,-1.62045 4.3212,0 8.1023,1.8005 3.871,1.71048 6.5718,4.68131 v -3.78106 q 0,-1.0803 0.7202,-1.8005 0.8102,-0.81023 1.9805,-0.81023 z m -17.3748,34.56964 q 3.0609,0 5.6716,-1.17032 2.7007,-1.17033 4.6813,-3.15088 1.9805,-1.98055 3.1509,-4.59128 1.1703,-2.70076 1.1703,-5.76161 0,-3.06085 -1.1703,-5.67158 -1.1704,-2.70075 -3.1509,-4.68131 -1.9806,-1.98055 -4.6813,-3.15087 -2.6107,-1.17033 -5.6716,-1.17033 -3.0608,0 -5.7616,1.17033 -2.6107,1.17032 -4.5913,3.15087 -1.9805,1.98056 -3.1509,4.68131 -1.1703,2.61073 -1.1703,5.67158 0,3.06085 1.1703,5.76161 1.1704,2.61073 3.1509,4.59128 1.9806,1.98055 4.5913,3.15088 2.7008,1.17032 5.7616,1.17032 z"
           id="path566" />
        <path
           d="m 684.31617,367.3849 q 1.17033,0 1.89053,0.81022 0.81022,0.7202 0.81022,1.80051 0,1.0803 -0.81022,1.89052 -0.7202,0.7202 -1.89053,0.7202 H 665.0508 q -2.43068,0 -4.59128,-0.90025 -2.07058,-0.90025 -3.69103,-2.5207 -1.62045,-1.62045 -2.5207,-3.69103 -0.90026,-2.1606 -0.90026,-4.59128 v -46.90308 q 0,-1.0803 0.7202,-1.8005 0.81023,-0.81022 1.89053,-0.81022 h 25.20703 q 1.0803,0 1.8005,0.81022 0.81023,0.7202 0.81023,1.8005 0,1.0803 -0.81023,1.89053 -0.7202,0.7202 -1.8005,0.7202 h -22.5963 v 22.77635 h 11.61324 q 1.0803,0 1.8005,0.81023 0.81023,0.7202 0.81023,1.8005 0,1.0803 -0.81023,1.89053 -0.7202,0.7202 -1.8005,0.7202 h -11.61324 v 16.29454 q 0,2.70075 1.89053,4.59128 1.89052,1.89053 4.59128,1.89053 h 19.26537 z"
           id="path568" />
        <path
           d="m 696.01952,352.62078 q 0,-4.14115 1.53042,-7.74216 1.62045,-3.69103 4.32121,-6.39178 2.70075,-2.70075 6.30175,-4.23118 3.69103,-1.62045 7.83219,-1.62045 4.41123,0 8.19228,1.8005 3.78106,1.71048 6.48181,4.68131 v -26.73746 q 0,-1.0803 0.81023,-1.8005 0.81022,-0.81023 1.89052,-0.81023 1.0803,0 1.8005,0.81023 0.81023,0.7202 0.81023,1.8005 v 57.61607 q 0,1.0803 -0.81023,1.89052 -0.7202,0.7202 -1.8005,0.7202 -1.0803,0 -1.89052,-0.7202 -0.81023,-0.81022 -0.81023,-1.89052 v -3.87108 q -2.70075,2.97082 -6.48181,4.77133 -3.78105,1.71047 -8.19228,1.71047 -4.14116,0 -7.83219,-1.53042 -3.601,-1.62045 -6.30175,-4.32121 -2.70076,-2.70075 -4.32121,-6.30175 -1.53042,-3.69103 -1.53042,-7.83219 z m 5.31148,0 q 0,3.06085 1.17032,5.76161 1.17033,2.61073 3.15088,4.59128 1.98055,1.98055 4.59128,3.15088 2.70075,1.17032 5.76161,1.17032 3.06085,0 5.67158,-1.17032 2.70075,-1.17033 4.6813,-3.15088 1.98056,-1.98055 3.15088,-4.59128 1.17033,-2.70076 1.17033,-5.76161 0,-3.06085 -1.17033,-5.67158 -1.17032,-2.70075 -3.15088,-4.68131 -1.98055,-1.98055 -4.6813,-3.15087 -2.61073,-1.17033 -5.67158,-1.17033 -3.06086,0 -5.76161,1.17033 -2.61073,1.17032 -4.59128,3.15087 -1.98055,1.98056 -3.15088,4.68131 -1.17032,2.61073 -1.17032,5.67158 z"
           id="path570" />
        <path
           d="m 776.68193,332.63521 q 1.0803,0 1.8005,0.81022 0.81023,0.72021 0.81023,1.89053 v 34.56964 q 0,1.0803 -0.81023,1.89053 -0.7202,0.7202 -1.8005,0.7202 -1.0803,0 -1.89053,-0.7202 -0.81023,-0.81023 -0.81023,-1.89053 v -1.62045 q -2.1606,2.07058 -4.95138,3.2409 -2.79077,1.0803 -5.94165,1.0803 -3.42096,0 -6.39178,-1.26035 -2.88081,-1.26035 -5.13144,-3.51098 -2.25062,-2.25062 -3.51097,-5.13143 -1.26036,-2.97083 -1.26036,-6.39178 v -20.97585 q 0,-1.0803 0.72021,-1.8005 0.81022,-0.81023 1.89052,-0.81023 1.17033,0 1.89053,0.81023 0.81023,0.7202 0.81023,1.8005 v 20.97585 q 0,2.34065 0.81022,4.32121 0.90025,1.98055 2.34065,3.51097 1.53043,1.44041 3.51098,2.34066 2.07058,0.81022 4.32121,0.81022 2.25063,0 4.23118,-0.81022 1.98055,-0.90025 3.42095,-2.34066 1.53043,-1.53042 2.34065,-3.51097 0.90025,-1.98056 0.90025,-4.32121 v -20.97585 q 0,-1.17032 0.81023,-1.89053 0.81023,-0.81022 1.89053,-0.81022 z"
           id="path572" />
        <path
           d="m 808.28078,372.60635 q -4.14115,0 -7.83218,-1.53042 -3.601,-1.62045 -6.30176,-4.32121 -2.70075,-2.70075 -4.3212,-6.30175 -1.53043,-3.69103 -1.53043,-7.83219 0,-4.14115 1.53043,-7.74216 1.62045,-3.69103 4.3212,-6.39178 2.70076,-2.70075 6.30176,-4.23118 3.69103,-1.62045 7.83218,-1.62045 4.32121,0 8.10226,1.71048 3.87108,1.71047 6.75189,4.86135 0.7202,0.81023 0.63017,1.98055 0,1.0803 -0.90025,1.80051 -0.81023,0.7202 -1.89053,0.7202 -1.0803,-0.09 -1.8005,-0.90025 -2.07058,-2.34066 -4.95138,-3.60101 -2.79078,-1.26035 -5.94166,-1.26035 -3.06085,0 -5.7616,1.17033 -2.61073,1.17032 -4.59128,3.15087 -1.98055,1.98056 -3.15088,4.68131 -1.17033,2.61073 -1.17033,5.67158 0,3.06085 1.17033,5.76161 1.17033,2.61073 3.15088,4.59128 1.98055,1.98055 4.59128,3.15088 2.70075,1.17032 5.7616,1.17032 1.08031,0 1.80051,0.81023 0.81022,0.7202 0.81022,1.89053 0,1.0803 -0.81022,1.89052 -0.7202,0.7202 -1.80051,0.7202 z"
           id="path574" />
        <path
           d="m 867.42732,332.72523 q 1.17032,0 1.89052,0.81023 0.81023,0.7202 0.81023,1.8005 v 34.65967 q 0,1.0803 -0.81023,1.89052 -0.7202,0.7202 -1.89052,0.7202 -1.0803,0 -1.89053,-0.7202 -0.7202,-0.81022 -0.7202,-1.89052 v -3.87108 q -2.79078,2.97082 -6.57183,4.77133 -3.78106,1.71047 -8.10226,1.71047 -4.14116,0 -7.83219,-1.53042 -3.601,-1.62045 -6.30175,-4.32121 -2.70076,-2.70075 -4.23118,-6.30175 -1.62045,-3.69103 -1.62045,-7.83219 0,-4.14115 1.62045,-7.74216 1.53042,-3.69103 4.23118,-6.39178 2.70075,-2.70075 6.30175,-4.23118 3.69103,-1.62045 7.83219,-1.62045 4.3212,0 8.10226,1.8005 3.78105,1.71048 6.57183,4.68131 v -3.78106 q 0,-1.0803 0.7202,-1.8005 0.81023,-0.81023 1.89053,-0.81023 z m -17.28482,34.56964 q 3.06085,0 5.67158,-1.17032 2.70075,-1.17033 4.6813,-3.15088 1.98056,-1.98055 3.15088,-4.59128 1.17033,-2.70076 1.17033,-5.76161 0,-3.06085 -1.17033,-5.67158 -1.17032,-2.70075 -3.15088,-4.68131 -1.98055,-1.98055 -4.6813,-3.15087 -2.61073,-1.17033 -5.67158,-1.17033 -3.06086,0 -5.76161,1.17033 -2.61073,1.17032 -4.59128,3.15087 -1.98055,1.98056 -3.15088,4.68131 -1.17032,2.61073 -1.17032,5.67158 0,3.06085 1.17032,5.76161 1.17033,2.61073 3.15088,4.59128 1.98055,1.98055 4.59128,3.15088 2.70075,1.17032 5.76161,1.17032 z"
           id="path576" />
        <path
           d="m 895.42514,332.63521 q 1.17033,0 1.89053,0.81022 0.81023,0.72021 0.81023,1.89053 0,1.0803 -0.81023,1.89053 -0.7202,0.7202 -1.89053,0.7202 h -6.39178 v 25.8372 q 0,1.44041 0.99028,2.52071 0.99027,0.99027 2.5207,0.99027 1.0803,0 1.89053,0.81023 0.81022,0.7202 0.81022,1.89053 0,1.0803 -0.81022,1.89052 -0.81023,0.7202 -1.89053,0.7202 -3.69103,0 -6.30176,-2.5207 -2.5207,-2.61073 -2.5207,-6.30176 v -25.8372 h -1.89053 q -1.17032,0 -1.98055,-0.7202 -0.7202,-0.81023 -0.7202,-1.89053 0,-1.17032 0.7202,-1.89053 0.81023,-0.81022 1.98055,-0.81022 h 1.89053 v -9.36261 q 0,-1.0803 0.7202,-1.8005 0.81023,-0.81023 1.89053,-0.81023 1.0803,0 1.89053,0.81023 0.81022,0.7202 0.81022,1.8005 v 9.36261 h 6.39178 z"
           id="path578" />
        <path
           d="m 909.82921,332.63521 q 0.99028,0 1.71048,0.81022 0.7202,0.72021 0.7202,1.71048 v 34.92974 q 0,1.0803 -0.7202,1.8005 -0.7202,0.7202 -1.71048,0.7202 -1.0803,0 -1.8005,-0.7202 -0.7202,-0.7202 -0.7202,-1.8005 v -34.92974 q 0,-0.99027 0.7202,-1.71048 0.7202,-0.81022 1.8005,-0.81022 z m 0,-17.915 q 1.53043,0 2.61073,1.08031 1.0803,1.0803 1.0803,2.61072 0,1.53043 -1.0803,2.61073 -1.0803,0.99028 -2.61073,0.99028 -1.53042,0 -2.61072,-0.99028 -0.99028,-1.0803 -0.99028,-2.61073 0,-1.53042 0.99028,-2.61072 1.0803,-1.08031 2.61072,-1.08031 z"
           id="path580" />
        <path
           d="m 947.90977,372.60635 q -4.14116,0 -7.83219,-1.53042 -3.601,-1.62045 -6.30175,-4.32121 -2.70076,-2.70075 -4.32121,-6.30175 -1.53043,-3.69103 -1.53043,-7.83219 0,-4.14115 1.53043,-7.74216 1.62045,-3.69103 4.32121,-6.39178 2.70075,-2.70075 6.30175,-4.23118 3.69103,-1.62045 7.83219,-1.62045 4.14115,0 7.74216,1.62045 3.69102,1.53043 6.39178,4.23118 2.70075,2.70075 4.23118,6.39178 1.62045,3.60101 1.62045,7.74216 0,4.14116 -1.62045,7.83219 -1.53043,3.601 -4.23118,6.30175 -2.70076,2.70076 -6.39178,4.32121 -3.60101,1.53042 -7.74216,1.53042 z m 0,-34.65966 q -3.06086,0 -5.76161,1.17033 -2.61073,1.17032 -4.59128,3.15087 -1.98055,1.98056 -3.15088,4.68131 -1.17032,2.61073 -1.17032,5.67158 0,3.06085 1.17032,5.76161 1.17033,2.61073 3.15088,4.59128 1.98055,1.98055 4.59128,3.15088 2.70075,1.17032 5.76161,1.17032 3.06085,0 5.67158,-1.17032 2.70075,-1.17033 4.6813,-3.15088 1.98056,-1.98055 3.15088,-4.59128 1.17033,-2.70076 1.17033,-5.76161 0,-3.06085 -1.17033,-5.67158 -1.17032,-2.70075 -3.15088,-4.68131 -1.98055,-1.98055 -4.6813,-3.15087 -2.61073,-1.17033 -5.67158,-1.17033 z"
           id="path582" />
        <path
           d="m 991.93209,332.63521 q 3.33092,0 6.30175,1.26035 2.97086,1.26035 5.13146,3.51098 2.2506,2.25063 3.511,5.22146 1.2603,2.97082 1.2603,6.30175 v 20.97585 q 0,1.0803 -0.8102,1.89053 -0.7202,0.7202 -1.8005,0.7202 -1.0803,0 -1.8906,-0.7202 -0.8102,-0.81023 -0.8102,-1.89053 v -20.97585 q 0,-2.25063 -0.9002,-4.23118 -0.8103,-2.07057 -2.34068,-3.51098 -1.4404,-1.53042 -3.42095,-2.34065 -1.98056,-0.90025 -4.23118,-0.90025 -2.25063,0 -4.32121,0.90025 -1.98055,0.81023 -3.51098,2.34065 -1.4404,1.44041 -2.34065,3.51098 -0.81023,1.98055 -0.81023,4.23118 v 21.06588 q 0,1.0803 -0.81022,1.89052 -0.7202,0.7202 -1.89053,0.7202 -1.0803,0 -1.89053,-0.7202 -0.7202,-0.81022 -0.7202,-1.89052 v -34.65967 q 0,-1.0803 0.7202,-1.8005 0.81023,-0.81023 1.89053,-0.81023 1.17033,0 1.89053,0.81023 0.81022,0.7202 0.81022,1.8005 v 1.62045 q 2.16061,-2.07057 4.95138,-3.15087 2.88081,-1.17033 6.03169,-1.17033 z"
           id="path584" />
        <path
           d="m 1102.843,368.91532 q 0.4501,0.99028 0,2.07058 -0.3601,0.99028 -1.3504,1.4404 -0.5401,0.18005 -0.9903,0.18005 -1.7104,0 -2.4306,-1.53042 l -9.0026,-20.0756 h -27.1875 l -8.9125,20.0756 q -0.4501,0.99027 -1.5304,1.4404 -0.9903,0.3601 -1.9806,-0.09 -0.9903,-0.45012 -1.4404,-1.4404 -0.3601,-1.0803 0.09,-2.07058 l 25.027,-55.99561 q 0.6302,-1.53042 2.3407,-1.53042 1.6204,0 2.4306,1.53042 z m -16.1145,-23.22647 -11.2531,-25.20703 -11.2532,25.20703 z"
           id="path586" />
        <path
           d="m 1128.7703,332.63521 q 4.1411,0 7.7421,1.62045 3.6911,1.53043 6.3918,4.23118 2.7008,2.70075 4.2312,6.39178 1.6204,3.60101 1.6204,7.74216 0,4.14116 -1.6204,7.83219 -1.5304,3.601 -4.2312,6.30175 -2.7007,2.70076 -6.3918,4.32121 -3.601,1.53042 -7.7421,1.53042 -4.3212,0 -8.1023,-1.71047 -3.781,-1.71048 -6.5718,-4.68131 v 27.27761 q 0,1.0803 -0.8102,1.8005 -0.7202,0.81023 -1.8906,0.81023 -1.0803,0 -1.8905,-0.81023 -0.7202,-0.7202 -0.7202,-1.8005 v -58.15622 q 0,-1.17032 0.7202,-1.89053 0.8102,-0.81022 1.8905,-0.81022 1.1704,0 1.8906,0.81022 0.8102,0.72021 0.8102,1.89053 v 3.78106 q 2.7908,-2.97083 6.5718,-4.68131 3.7811,-1.8005 8.1023,-1.8005 z m 0,34.65966 q 3.0608,0 5.6716,-1.17032 2.7007,-1.17033 4.6813,-3.15088 1.9805,-1.98055 3.1508,-4.59128 1.1704,-2.70076 1.1704,-5.76161 0,-3.06085 -1.1704,-5.67158 -1.1703,-2.70075 -3.1508,-4.68131 -1.9806,-1.98055 -4.6813,-3.15087 -2.6108,-1.17033 -5.6716,-1.17033 -3.0609,0 -5.7616,1.17033 -2.6108,1.17032 -4.5913,3.15087 -1.9806,1.98056 -3.1509,4.68131 -1.1703,2.61073 -1.1703,5.67158 0,3.06085 1.1703,5.76161 1.1703,2.61073 3.1509,4.59128 1.9805,1.98055 4.5913,3.15088 2.7007,1.17032 5.7616,1.17032 z"
           id="path588" />
        <path
           d="m 1176.8437,332.63521 q 4.1412,0 7.7422,1.62045 3.691,1.53043 6.3917,4.23118 2.7008,2.70075 4.2312,6.39178 1.6205,3.60101 1.6205,7.74216 0,4.14116 -1.6205,7.83219 -1.5304,3.601 -4.2312,6.30175 -2.7007,2.70076 -6.3917,4.32121 -3.601,1.53042 -7.7422,1.53042 -4.3212,0 -8.1023,-1.71047 -3.781,-1.71048 -6.5718,-4.68131 v 27.27761 q 0,1.0803 -0.8102,1.8005 -0.7202,0.81023 -1.8905,0.81023 -1.0803,0 -1.8906,-0.81023 -0.7202,-0.7202 -0.7202,-1.8005 v -58.15622 q 0,-1.17032 0.7202,-1.89053 0.8103,-0.81022 1.8906,-0.81022 1.1703,0 1.8905,0.81022 0.8102,0.72021 0.8102,1.89053 v 3.78106 q 2.7908,-2.97083 6.5718,-4.68131 3.7811,-1.8005 8.1023,-1.8005 z m 0,34.65966 q 3.0608,0 5.6716,-1.17032 2.7007,-1.17033 4.6813,-3.15088 1.9805,-1.98055 3.1509,-4.59128 1.1703,-2.70076 1.1703,-5.76161 0,-3.06085 -1.1703,-5.67158 -1.1704,-2.70075 -3.1509,-4.68131 -1.9806,-1.98055 -4.6813,-3.15087 -2.6108,-1.17033 -5.6716,-1.17033 -3.0609,0 -5.7616,1.17033 -2.6107,1.17032 -4.5913,3.15087 -1.9805,1.98056 -3.1509,4.68131 -1.1703,2.61073 -1.1703,5.67158 0,3.06085 1.1703,5.76161 1.1704,2.61073 3.1509,4.59128 1.9806,1.98055 4.5913,3.15088 2.7007,1.17032 5.7616,1.17032 z"
           id="path590" />
      </g>
      <g
         aria-label="&amp;"
         id="text6-5-3-0"
         style="font-weight:bold;font-size:88.2652px;font-family:Break;-inkscape-font-specification:'Break, Bold';dominant-baseline:middle;display:inline;fill:#70e0d0;stroke-width:1.61886"
         class="custom">
        <path
           d="m 1259.8615,308.91172 q -0.1765,0.0883 -0.2647,0.0883 -0.088,0 -0.2648,0.0883 l -0.7062,0.17653 q 1.2357,2.20663 1.9419,4.76633 0.7061,2.47142 0.7061,5.11938 0,4.14846 -1.5888,7.76733 -1.5005,3.53061 -4.2367,6.26683 -2.7362,2.73622 -6.3551,4.325 -3.6189,1.50051 -7.7673,1.50051 -4.1485,0 -7.7674,-1.50051 -3.5306,-1.58878 -6.2668,-4.325 -2.7362,-2.73622 -4.325,-6.26683 -1.5005,-3.61887 -1.5005,-7.76733 0,-5.03112 2.2949,-9.35611 2.2949,-4.325 6.4433,-7.14948 l 6.6199,-4.41326 q -2.5597,-1.23572 -4.1484,-3.61888 -1.5005,-2.47142 -1.5005,-5.47244 0,-2.11836 0.7943,-3.88367 0.7944,-1.85357 2.2067,-3.26581 1.4122,-1.41224 3.1775,-2.20663 1.8536,-0.79439 3.972,-0.79439 2.1183,0 3.9719,0.79439 1.8536,0.79439 3.2658,2.20663 1.4122,1.41224 2.2066,3.26581 0.7944,1.76531 0.7944,3.88367 0,2.64796 -1.2357,4.85459 -1.2357,2.20663 -3.2658,3.61887 h -0.088 l -13.8576,9.26784 q -3.0893,2.0301 -4.8546,5.29592 -1.677,3.26581 -1.677,6.97295 0,3.08928 1.1474,5.73723 1.1475,2.64796 3.1776,4.67806 2.0301,2.0301 4.678,3.17755 2.648,1.14745 5.7373,1.14745 3.0892,0 5.7372,-1.14745 2.7362,-1.14745 4.7663,-3.17755 2.0301,-2.0301 3.1776,-4.67806 1.1474,-2.64795 1.1474,-5.73723 0,-4.85459 -2.9127,-8.73826 l -1.6771,0.35306 q -0.8826,0.0883 -1.324,0.88266 -0.5296,0.70612 -0.353,1.58877 0.2648,1.05918 -0.3531,2.0301 -0.5296,0.88265 -1.5888,1.05918 -0.1765,0 -0.2647,0.0883 -0.088,0 -0.2648,0 -0.971,0 -1.6771,-0.5296 -0.7061,-0.61785 -0.8826,-1.5005 -0.5296,-3.08929 1.0591,-5.47245 1.6771,-2.64795 4.5016,-3.17754 l 7.8556,-1.67704 q 0.8826,-0.17653 1.324,-0.88265 0.4413,-0.79439 0.2647,-1.67704 -0.1765,-0.97092 0.3531,-1.85357 0.6179,-0.97092 1.677,-1.14745 1.0592,-0.26479 1.9419,0.35306 0.8826,0.52959 1.0592,1.58878 0.7061,2.82448 -0.7944,5.29591 -1.5005,2.38316 -4.2368,3.17754 z m -18.5356,-24.80252 q -2.0301,0 -3.5307,1.50051 -1.4122,1.50051 -1.4122,3.53061 0,2.11836 1.4122,3.61887 1.5006,1.41225 3.5307,1.41225 2.1183,0 3.5306,-1.41225 1.5005,-1.50051 1.5005,-3.61887 0,-2.0301 -1.5005,-3.53061 -1.4123,-1.50051 -3.5306,-1.50051 z"
           id="path593" />
      </g>
    </g>
  </g>
</svg>
